<?xml version="1.0" standalone="no"?>
<!DOCTYPE svg PUBLIC "-//W3C//DTD SVG 1.1//EN" "http://www.w3.org/Graphics/SVG/1.1/DTD/svg11.dtd">
<svg xmlns="http://www.w3.org/2000/svg">
<metadata>OkayFonts</metadata>
<defs>
<font id="OkayFonts" horiz-adv-x="512">
<font-face font-family="OkayFonts" units-per-em="512" ascent="480" descent="-32"/>
<missing-glyph horiz-adv-x="512" />

<glyph glyph-name="account-balance-wallet" unicode="&#97;" d="M448 128l0-21c0-24-19-43-43-43l-298 0c-24 0-43 19-43 43l0 298c0 24 19 43 43 43l298 0c24 0 43-19 43-43l0-21-192 0c-24 0-43-19-43-43l0-170c0-24 19-43 43-43z m-192 43l213 0 0 170-213 0z m85 53c-17 0-32 14-32 32 0 18 15 32 32 32 18 0 32-14 32-32 0-18-14-32-32-32z"/>
<glyph glyph-name="account-box" unicode="&#98;" d="M64 405l0-298c0-24 19-43 43-43l298 0c24 0 43 19 43 43l0 298c0 24-19 43-43 43l-298 0c-24 0-43-19-43-43z m256-85c0-35-29-64-64-64-35 0-64 29-64 64 0 35 29 64 64 64 35 0 64-29 64-64z m-192-171c0 43 85 66 128 66 43 0 128-23 128-66l0-21-256 0z"/>
<glyph glyph-name="account-circle" unicode="&#99;" d="M256 469c-118 0-213-95-213-213 0-118 95-213 213-213 118 0 213 95 213 213 0 118-95 213-213 213z m0-64c35 0 64-28 64-64 0-35-29-64-64-64-35 0-64 29-64 64 0 36 29 64 64 64z m0-303c-53 0-100 28-128 69 1 43 85 66 128 66 42 0 127-23 128-66-28-41-75-69-128-69z"/>
<glyph glyph-name="add-circle" unicode="&#100;" d="M256 469c-118 0-213-95-213-213 0-118 95-213 213-213 118 0 213 95 213 213 0 118-95 213-213 213z m107-234l-86 0 0-86-42 0 0 86-86 0 0 42 86 0 0 86 42 0 0-86 86 0z"/>
<glyph glyph-name="zoom-out" unicode="&#101;" d="M331 213l-17 0-6 6c21 24 33 56 33 90 0 77-62 139-138 139-77 0-139-62-139-139 0-76 62-138 139-138 34 0 66 12 90 33l6-6 0-17 106-106 32 32z m-128 0c-53 0-96 43-96 96 0 53 43 96 96 96 53 0 96-43 96-96 0-53-43-96-96-96z m-54 107l107 0 0-21-107 0z"/>
<glyph glyph-name="zoom-in" unicode="&#102;" d="M331 213l-17 0-6 6c21 24 33 56 33 90 0 77-62 139-138 139-77 0-139-62-139-139 0-76 62-138 139-138 34 0 66 12 90 33l6-6 0-17 106-106 32 32z m-128 0c-53 0-96 43-96 96 0 53 43 96 96 96 53 0 96-43 96-96 0-53-43-96-96-96z m53 86l-43 0 0-43-21 0 0 43-43 0 0 21 43 0 0 43 21 0 0-43 43 0z"/>
<glyph glyph-name="thumb-down" unicode="&#103;" d="M320 448l-192 0c-18 0-33-11-39-26l-65-150c-2-5-3-10-3-16l0-43c0-23 20-42 43-42l135 0-21-98 0-7c0-8 3-17 9-22l23-23 140 141c8 8 13 18 13 30l0 213c0 24-20 43-43 43z m85 0l0-256 86 0 0 256z"/>
<glyph glyph-name="add-circle-outline" unicode="&#104;" d="M277 363l-42 0 0-86-86 0 0-42 86 0 0-86 42 0 0 86 86 0 0 42-86 0z m-21 106c-118 0-213-95-213-213 0-118 95-213 213-213 118 0 213 95 213 213 0 118-95 213-213 213z m0-384c-94 0-171 77-171 171 0 94 77 171 171 171 94 0 171-77 171-171 0-94-77-171-171-171z"/>
<glyph glyph-name="arrow-forward" unicode="&#105;" d="M256 427l-30-30 119-120-260 0 0-42 260 0-119-120 30-30 171 171z"/>
<glyph glyph-name="arrow-right-alt" unicode="&#106;" d="M342 277l-257 0 0-42 257 0 0-64 85 85-85 85z"/>
<glyph glyph-name="assessment" unicode="&#107;" d="M405 448l-298 0c-24 0-43-19-43-43l0-298c0-24 19-43 43-43l298 0c24 0 43 19 43 43l0 298c0 24-19 43-43 43z m-213-299l-43 0 0 150 43 0z m85 0l-42 0 0 214 42 0z m86 0l-43 0 0 86 43 0z"/>
<glyph glyph-name="autorenew" unicode="&#108;" d="M256 384l0-64 85 85-85 86 0-64c-94 0-171-77-171-171 0-33 10-65 27-91l31 31c-10 18-15 38-15 60 0 71 57 128 128 128z m144-37l-31-31c9-18 15-38 15-60 0-71-57-128-128-128l0 64-85-85 85-86 0 64c94 0 171 77 171 171 0 33-10 65-27 91z"/>
<glyph glyph-name="backspace" unicode="&#109;" d="M469 448l-320 0c-14 0-26-7-34-19l-115-173 115-173c8-11 20-19 34-19l320 0c24 0 43 19 43 43l0 298c0 24-19 43-43 43z m-64-269l-30-30-76 77-77-77-30 30 77 77-77 77 30 30 77-77 76 77 30-30-76-77z"/>
<glyph glyph-name="backup" unicode="&#110;" d="M413 298c-15 73-79 129-157 129-62 0-115-35-142-87-64-6-114-61-114-127 0-70 57-128 128-128l277 0c59 0 107 48 107 107 0 56-44 102-99 106z m-114-63l0-86-86 0 0 86-64 0 107 106 107-106z"/>
<glyph glyph-name="beenhere" unicode="&#111;" d="M405 491l-298 0c-24 0-43-20-43-43l0-276c0-15 7-28 19-35l173-116 173 116c11 7 19 20 19 35l0 276c0 23-19 43-43 43z m-192-320l-106 106 30 30 76-76 162 162 30-30z"/>
<glyph glyph-name="book" unicode="&#112;" d="M384 469l-256 0c-23 0-43-19-43-42l0-342c0-23 20-42 43-42l256 0c23 0 43 19 43 42l0 342c0 23-20 42-43 42z m-256-42l107 0 0-171-54 32-53-32z"/>
<glyph glyph-name="cloud-done" unicode="&#113;" d="M413 298c-15 73-79 129-157 129-62 0-115-35-142-87-64-6-114-61-114-127 0-70 57-128 128-128l277 0c59 0 107 48 107 107 0 56-44 102-99 106z m-200-149l-74 75 30 30 44-44 111 110 30-30z"/>
<glyph glyph-name="cloud-circle" unicode="&#114;" d="M256 469c-118 0-213-95-213-213 0-118 95-213 213-213 118 0 213 95 213 213 0 118-95 213-213 213z m96-298l-181 0c-36 0-64 28-64 64 0 35 28 64 64 64l3-1c9 37 42 65 82 65 47 0 85-39 85-86l11 0c29 0 53-24 53-53 0-29-24-53-53-53z"/>
<glyph glyph-name="cloud" unicode="&#115;" d="M413 298c-15 73-79 129-157 129-62 0-115-35-142-87-64-6-114-61-114-127 0-70 57-128 128-128l277 0c59 0 107 48 107 107 0 56-44 102-99 106z"/>
<glyph glyph-name="clear" unicode="&#116;" d="M405 375l-30 30-119-119-119 119-30-30 119-119-119-119 30-30 119 119 119-119 30 30-119 119z"/>
<glyph glyph-name="check-circle-outline" unicode="&#117;" d="M354 350l-141-140-76 76-30-30 106-107 171 171z m-98 119c-118 0-213-95-213-213 0-118 95-213 213-213 118 0 213 95 213 213 0 118-95 213-213 213z m0-384c-94 0-171 77-171 171 0 94 77 171 171 171 94 0 171-77 171-171 0-94-77-171-171-171z"/>
<glyph glyph-name="check-circle" unicode="&#118;" d="M256 469c-118 0-213-95-213-213 0-118 95-213 213-213 118 0 213 95 213 213 0 118-95 213-213 213z m-43-320l-106 107 30 30 76-76 162 162 30-31z"/>
<glyph glyph-name="check-box-outline-blank" unicode="&#119;" d="M405 405l0-298-298 0 0 298 298 0m0 43l-298 0c-24 0-43-19-43-43l0-298c0-24 19-43 43-43l298 0c24 0 43 19 43 43l0 298c0 24-19 43-43 43z"/>
<glyph glyph-name="check-box" unicode="&#120;" d="M405 448l-298 0c-24 0-43-19-43-43l0-298c0-24 19-43 43-43l298 0c24 0 43 19 43 43l0 298c0 24-19 43-43 43z m-192-299l-106 107 30 30 76-76 162 162 30-31z"/>
<glyph glyph-name="check" unicode="&#121;" d="M192 167l-89 89-30-30 119-119 256 256-30 30z"/>
<glyph glyph-name="chat-bubble-outline" unicode="&#122;" d="M427 469l-342 0c-23 0-42-19-42-42l0-384 85 85 299 0c23 0 42 19 42 43l0 256c0 23-19 42-42 42z m0-298l-299 0-43-43 0 299 342 0z"/>
<glyph glyph-name="chat-bubble" unicode="&#65;" d="M427 469l-342 0c-23 0-42-19-42-42l0-384 85 85 299 0c23 0 42 19 42 43l0 256c0 23-19 42-42 42z"/>
<glyph glyph-name="call" unicode="&#66;" d="M427 184c-26 0-52 4-75 12-8 2-16 0-22-5l-33-42c-61 28-117 83-147 145l41 36c6 6 8 14 5 22-8 23-12 49-12 75 0 11-9 21-21 21l-74 0c-11 0-25-5-25-21 0-198 165-363 363-363 15 0 21 13 21 25l0 74c0 11-10 21-21 21z"/>
<glyph glyph-name="cloud-download" unicode="&#67;" d="M413 298c-15 73-79 129-157 129-62 0-115-35-142-87-64-6-114-61-114-127 0-70 57-128 128-128l277 0c59 0 107 48 107 107 0 56-44 102-99 106z m-50-63l-107-107-107 107 64 0 0 85 86 0 0-85z"/>
<glyph glyph-name="cloud-off" unicode="&#68;" d="M413 298c-15 73-79 129-157 129-32 0-61-10-86-25l32-31c16 8 34 13 54 13 65 0 117-52 117-117l0-11 32 0c36 0 64-29 64-64 0-24-13-45-33-56l31-31c27 20 45 51 45 87 0 56-44 102-99 106z m-349 102l59-59c-68-3-123-59-123-128 0-70 57-128 128-128l250 0 43-42 27 27-357 357z m101-101l171-171-208 0c-47 0-85 38-85 85 0 47 38 86 85 86z"/>
<glyph glyph-name="chat" unicode="&#69;" d="M427 469l-342 0c-23 0-42-19-42-42l0-384 85 85 299 0c23 0 42 19 42 43l0 256c0 23-19 42-42 42z m-299-149l256 0 0-43-256 0z m171-107l-171 0 0 43 171 0z m85 128l-256 0 0 43 256 0z"/>
<glyph glyph-name="cloud-queue" unicode="&#70;" d="M413 298c-15 73-79 129-157 129-62 0-115-35-142-87-64-6-114-61-114-127 0-70 57-128 128-128l277 0c59 0 107 48 107 107 0 56-44 102-99 106z m-8-170l-277 0c-47 0-85 38-85 85 0 47 38 86 85 86l15 0c14 49 59 85 113 85 65 0 117-52 117-117l0-11 32 0c36 0 64-29 64-64 0-35-28-64-64-64z"/>
<glyph glyph-name="cloud-upload" unicode="&#71;" d="M413 298c-15 73-79 129-157 129-62 0-115-35-142-87-64-6-114-61-114-127 0-70 57-128 128-128l277 0c59 0 107 48 107 107 0 56-44 102-99 106z m-114-63l0-86-86 0 0 86-64 0 107 106 107-106z"/>
<glyph glyph-name="compare-arrows" unicode="&#72;" d="M192 213l-149 0 0-42 149 0 0-64 85 85-85 85z m128 22l0 64 149 0 0 42-149 0 0 64-85-85z"/>
<glyph glyph-name="create" unicode="&#73;" d="M64 144l0-80 80 0 236 236-80 80z m378 218c8 8 8 22 0 30l-50 50c-8 8-22 8-30 0l-39-39 80-80z"/>
<glyph glyph-name="contact-support" unicode="&#74;" d="M245 469c-100 0-181-81-181-181 0-100 81-181 181-181l11 0 0-64c104 50 171 149 171 245 0 100-82 181-182 181z m22-309l-43 0 0 43 43 0z m0 75l-43 0c0 69 64 64 64 106 0 24-19 43-43 43-23 0-42-19-42-43l-43 0c0 47 38 86 85 86 47 0 86-39 86-86 0-53-64-58-64-106z"/>
<glyph glyph-name="delete" unicode="&#75;" d="M128 107c0-24 19-43 43-43l170 0c24 0 43 19 43 43l0 256-256 0z m277 320l-74 0-22 21-106 0-22-21-74 0 0-43 298 0z"/>
<glyph glyph-name="delete-forever" unicode="&#76;" d="M128 107c0-24 19-43 43-43l170 0c24 0 43 19 43 43l0 256-256 0z m52 152l31 30 45-46 45 46 30-30-45-46 45-45-30-30-45 45-45-45-30 30 45 45z m151 168l-22 21-106 0-22-21-74 0 0-43 298 0 0 43z"/>
<glyph glyph-name="directions-walk" unicode="&#77;" d="M288 395c23 0 43 19 43 42 0 24-20 43-43 43-23 0-43-19-43-43 0-23 20-42 43-42z m-79-73l-60-301 45 0 39 171 44-43 0-128 43 0 0 160-45 43 13 64c28-32 70-53 117-53l0 42c-40 0-74 22-91 52l-22 34c-8 12-21 21-36 21-6 0-11-2-17-2l-111-47 0-100 43 0 0 72 38 15"/>
<glyph glyph-name="done" unicode="&#78;" d="M192 166l-90 90-29-30 119-119 256 256-30 30z"/>
<glyph glyph-name="done-all" unicode="&#79;" d="M384 363l-30 30-135-136 30-30z m90 30l-225-226-89 89-31-30 120-119 256 256z m-465-167l119-119 30 30-119 119z"/>
<glyph glyph-name="email" unicode="&#80;" d="M427 427l-342 0c-23 0-42-20-42-43l0-256c0-23 19-43 42-43l342 0c23 0 42 20 42 43l0 256c0 23-19 43-42 43z m0-86l-171-106-171 106 0 43 171-107 171 107z"/>
<glyph glyph-name="highlight-off" unicode="&#81;" d="M311 341l-55-55-55 55-30-30 55-55-55-55 30-30 55 55 55-55 30 30-55 55 55 55z m-55 128c-118 0-213-95-213-213 0-118 95-213 213-213 118 0 213 95 213 213 0 118-95 213-213 213z m0-384c-94 0-171 77-171 171 0 94 77 171 171 171 94 0 171-77 171-171 0-94-77-171-171-171z"/>
<glyph glyph-name="help-outline" unicode="&#82;" d="M235 128l42 0 0 43-42 0z m21 341c-118 0-213-95-213-213 0-118 95-213 213-213 118 0 213 95 213 213 0 118-95 213-213 213z m0-384c-94 0-171 77-171 171 0 94 77 171 171 171 94 0 171-77 171-171 0-94-77-171-171-171z m0 299c-47 0-85-38-85-85l42 0c0 23 20 42 43 42 23 0 43-19 43-42 0-43-64-38-64-107l42 0c0 48 64 53 64 107 0 47-38 85-85 85z"/>
<glyph glyph-name="help" unicode="&#83;" d="M256 469c-118 0-213-95-213-213 0-118 95-213 213-213 118 0 213 95 213 213 0 118-95 213-213 213z m21-362l-42 0 0 42 42 0z m44 165l-19-20c-15-15-25-28-25-60l-42 0 0 11c0 23 9 44 25 60l26 27c8 8 13 18 13 30 0 23-20 43-43 43-23 0-43-20-43-43l-42 0c0 47 38 85 85 85 47 0 85-38 85-85 0-19-7-36-20-48z"/>
<glyph glyph-name="grade" unicode="&#84;" d="M256 144l132-80-35 150 116 101-153 13-60 141-60-141-153-13 116-101-35-150z"/>
<glyph glyph-name="get-app" unicode="&#85;" d="M405 320l-85 0 0 128-128 0 0-128-85 0 149-149z m-298-192l0-43 298 0 0 43z"/>
<glyph glyph-name="forum" unicode="&#86;" d="M448 384l-43 0 0-192-277 0 0-43c0-11 10-21 21-21l235 0 85-85 0 320c0 11-9 21-21 21z m-85-128l0 192c0 12-10 21-22 21l-277 0c-12 0-21-9-21-21l0-299 85 86 213 0c12 0 22 9 22 21z"/>
<glyph glyph-name="feedback" unicode="&#87;" d="M427 469l-342 0c-23 0-42-19-42-42l0-384 85 85 299 0c23 0 42 19 42 43l0 256c0 23-19 42-42 42z m-150-256l-42 0 0 43 42 0z m0 86l-42 0 0 85 42 0z"/>
<glyph glyph-name="favorite-border" unicode="&#88;" d="M352 448c-37 0-73-17-96-45-23 28-59 45-96 45-66 0-117-52-117-117 0-81 72-147 182-247l31-27 31 28c110 99 182 165 182 246 0 65-51 117-117 117z m-94-332l-2-2-2 2c-102 92-169 153-169 215 0 42 32 74 75 74 33 0 65-21 76-50l40 0c11 29 43 50 76 50 43 0 75-32 75-74 0-62-67-123-169-215z"/>
<glyph glyph-name="favorite" unicode="&#89;" d="M256 57l-31 28c-110 99-182 165-182 246 0 65 51 117 117 117 37 0 73-17 96-45 23 28 59 45 96 45 66 0 117-52 117-117 0-81-72-147-182-247z"/>
<glyph glyph-name="extension" unicode="&#90;" d="M437 277l-32 0 0 86c0 23-19 42-42 42l-86 0 0 32c0 30-24 54-53 54-29 0-53-24-53-54l0-32-86 0c-23 0-42-19-42-42l0-81 32 0c31 0 57-26 57-58 0-32-26-58-57-58l-32 0 0-81c0-23 19-42 42-42l81 0 0 32c0 31 26 57 58 57 32 0 58-26 58-57l0-32 81 0c23 0 42 19 42 42l0 86 32 0c30 0 54 24 54 53 0 29-24 53-54 53z"/>
<glyph glyph-name="exit-to-app" unicode="&#48;" d="M215 179l30-30 107 107-107 107-30-30 55-56-206 0 0-42 206 0z m190 269l-298 0c-24 0-43-19-43-43l0-85 43 0 0 85 298 0 0-298-298 0 0 85-43 0 0-85c0-24 19-43 43-43l298 0c24 0 43 19 43 43l0 298c0 24-19 43-43 43z"/>
<glyph glyph-name="error-outline" unicode="&#49;" d="M235 192l42 0 0-43-42 0z m0 171l42 0 0-128-42 0z m21 106c-118 0-213-95-213-213 0-118 95-213 213-213 118 0 213 95 213 213 0 118-95 213-213 213z m0-384c-94 0-171 77-171 171 0 94 77 171 171 171 94 0 171-77 171-171 0-94-77-171-171-171z"/>
<glyph glyph-name="error" unicode="&#50;" d="M256 469c-118 0-213-95-213-213 0-118 95-213 213-213 118 0 213 95 213 213 0 118-95 213-213 213z m21-320l-42 0 0 43 42 0z m0 86l-42 0 0 128 42 0z"/>
<glyph glyph-name="home" unicode="&#51;" d="M213 85l0 128 86 0 0-128 106 0 0 171 64 0-213 192-213-192 64 0 0-171z"/>
<glyph glyph-name="local-activity" unicode="&#52;" d="M427 256c0 23 19 43 42 43l0 85c0 23-19 43-42 43l-342 0c-23 0-42-20-42-43l0-85c23 0 42-20 42-43 0-23-19-43-42-43l0-85c0-23 19-43 42-43l342 0c23 0 42 20 42 43l0 85c-23 0-42 20-42 43z m-95-102l-76 49-76-49 23 87-71 58 91 5 33 84 33-84 90-5-70-58z"/>
<glyph glyph-name="phone-in-talk" unicode="&#53;" d="M427 181c-27 0-53 5-76 12-8 3-16 1-22-5l-47-47c-61 31-110 80-141 141l47 47c6 6 8 14 5 22-7 23-12 49-12 76 0 11-9 21-21 21l-75 0c-11 0-21-10-21-21 0-201 162-363 363-363 11 0 21 10 21 21l0 75c0 12-10 21-21 21z m-22 75l43 0c0 106-86 192-192 192l0-43c83 0 149-66 149-149z m-85 0l43 0c0 59-48 107-107 107l0-43c35 0 64-29 64-64z"/>
<glyph glyph-name="send" unicode="&#54;" d="M43 64l448 192-448 192 0-149 320-43-320-43z"/>
<glyph glyph-name="toggle-on" unicode="&#55;" d="M363 363l-214 0c-59 0-106-48-106-107 0-59 47-107 106-107l214 0c59 0 106 48 106 107 0 59-47 107-106 107z m0-171c-36 0-64 29-64 64 0 35 28 64 64 64 35 0 64-29 64-64 0-35-29-64-64-64z"/>
<glyph glyph-name="touch-app" unicode="&#56;" d="M192 272l0 80c0 29 24 53 53 53 30 0 54-24 54-53l0-80c25 17 42 47 42 80 0 53-43 96-96 96-53 0-96-43-96-96 0-33 17-63 43-80z m210-99l-97 49c-4 1-7 2-11 2l-17 0 0 128c0 18-14 32-32 32-17 0-32-14-32-32l0-229-73 15c-2 0-3 1-5 1-7 0-13-3-17-7l-17-17 106-106c5-5 14-9 22-9l145 0c16 0 29 12 31 27l16 113c0 1 0 3 0 4 0 13-8 25-19 29z"/>
<glyph glyph-name="verified-user" unicode="&#57;" d="M256 491l-192-86 0-128c0-118 82-229 192-256 110 27 192 138 192 256l0 128z m-43-342l-85 86 30 30 55-55 141 140 30-30z"/>
<glyph glyph-name="videocam" unicode="&#33;" d="M363 288l0 75c0 11-10 21-22 21l-256 0c-11 0-21-10-21-21l0-214c0-11 10-21 21-21l256 0c12 0 22 10 22 21l0 75 85-85 0 234z"/>
<glyph glyph-name="view-list" unicode="&#34;" d="M85 213l86 0 0 86-86 0z m0-106l86 0 0 85-86 0z m0 213l86 0 0 85-86 0z m107-107l256 0 0 86-256 0z m0-106l256 0 0 85-256 0z m0 298l0-85 256 0 0 85z"/>
<glyph glyph-name="view-module" unicode="&#35;" d="M85 277l107 0 0 128-107 0z m0-149l107 0 0 128-107 0z m128 0l107 0 0 128-107 0z m128 0l107 0 0 128-107 0z m-128 149l107 0 0 128-107 0z m128 128l0-128 107 0 0 128z"/>
<glyph glyph-name="visibility" unicode="&#36;" d="M256 416c-107 0-198-66-235-160 37-94 128-160 235-160 107 0 198 66 235 160-37 94-128 160-235 160z m0-267c-59 0-107 48-107 107 0 59 48 107 107 107 59 0 107-48 107-107 0-59-48-107-107-107z m0 171c-35 0-64-29-64-64 0-35 29-64 64-64 35 0 64 29 64 64 0 35-29 64-64 64z"/>
<glyph glyph-name="visibility-off" unicode="&#37;" d="M256 363c59 0 107-48 107-107 0-14-3-27-8-39l62-62c32 27 58 61 73 101-36 94-128 160-234 160-30 0-59-5-85-15l46-46c12 5 25 8 39 8z m-213 58l58-59c-35-27-63-64-80-106 37-94 128-160 235-160 33 0 65 6 93 18l9-9 63-62 27 27-378 378z m118-118l33-33c-1-5-2-9-2-14 0-35 29-64 64-64 5 0 9 1 14 2l33-33c-14-7-30-12-47-12-59 0-107 48-107 107 0 17 5 33 12 47z m92 17l67-68 0 4c0 35-28 64-64 64z"/>
<glyph glyph-name="vpn-key" unicode="&#38;" d="M270 299c-18 49-65 85-121 85-70 0-128-57-128-128 0-71 58-128 128-128 56 0 103 36 121 85l93 0 0-85 85 0 0 85 43 0 0 86z m-121-86c-23 0-42 20-42 43 0 23 19 43 42 43 24 0 43-20 43-43 0-23-19-43-43-43z"/>
<glyph glyph-name="work" unicode="&#39;" d="M427 384l-86 0 0 43c0 23-19 42-42 42l-86 0c-23 0-42-19-42-42l0-43-86 0c-23 0-42-19-42-43l0-234c0-24 19-43 42-43l342 0c23 0 42 19 42 43l0 234c0 24-19 43-42 43z m-128 0l-86 0 0 43 86 0z"/>
<glyph glyph-name="toggle-off" unicode="&#40;" d="M363 363l-214 0c-59 0-106-48-106-107 0-59 47-107 106-107l214 0c59 0 106 48 106 107 0 59-47 107-106 107z m-214-171c-35 0-64 29-64 64 0 35 29 64 64 64 36 0 64-29 64-64 0-35-28-64-64-64z"/>
<glyph glyph-name="thumb-up" unicode="&#41;" d="M21 64l86 0 0 256-86 0z m470 235c0 23-20 42-43 42l-135 0 21 98 0 7c0 8-3 17-9 22l-23 23-140-141c-8-8-13-18-13-30l0-213c0-24 20-43 43-43l192 0c18 0 33 11 39 26l65 150c2 5 3 10 3 16z"/>
<glyph glyph-name="schedule" unicode="&#42;" d="M256 469c-118 0-213-95-213-213 0-118 95-213 213-213 118 0 213 95 213 213 0 118-95 213-213 213z m0-384c-94 0-171 77-171 171 0 94 77 171 171 171 94 0 171-77 171-171 0-94-77-171-171-171z m11 278l-32 0 0-128 112-68 16 27-96 57z"/>
<glyph glyph-name="search" unicode="&#43;" d="M331 213l-17 0-6 6c21 24 33 56 33 90 0 77-62 139-138 139-77 0-139-62-139-139 0-76 62-138 139-138 34 0 66 12 90 33l6-6 0-17 106-106 32 32z m-128 0c-53 0-96 43-96 96 0 53 43 96 96 96 53 0 96-43 96-96 0-53-43-96-96-96z"/>
<glyph glyph-name="phone-callback" unicode="&#44;" d="M141 282c31-61 80-110 141-141l47 47c6 6 14 8 22 5 23-8 49-12 76-12 11 0 21-9 21-21l0-75c0-11-10-21-21-21-201 0-363 162-363 363 0 11 10 21 21 21l75 0c12 0 21-10 21-21 0-27 5-53 12-76 3-8 1-16-5-22z m289 151l-15 15-138-134 0 91-21 0 0-128 128 0 0 22-89 0z"/>
<glyph glyph-name="person-pin" unicode="&#45;" d="M256 469c-106 0-192-86-192-192 0-89 61-163 143-185l49-49 49 49c82 22 143 96 143 185 0 106-86 192-192 192z m0-42c35 0 64-29 64-64 0-36-29-64-64-64-35 0-64 28-64 64 0 35 29 64 64 64z m0-305c-53 0-100 27-128 68 1 43 85 66 128 66 42 0 127-23 128-66-28-41-75-68-128-68z"/>
<glyph glyph-name="list" unicode="&#46;" d="M64 235l43 0 0 42-43 0z m0-86l43 0 0 43-43 0z m0 171l43 0 0 43-43 0z m85-85l299 0 0 42-299 0z m0-86l299 0 0 43-299 0z m0 214l0-43 299 0 0 43z"/>
<glyph glyph-name="live-help" unicode="&#47;" d="M405 469l-298 0c-24 0-43-19-43-42l0-299c0-23 19-43 43-43l85 0 64-64 64 64 85 0c24 0 43 20 43 43l0 299c0 23-19 42-43 42z m-128-341l-42 0 0 43 42 0z m44 165l-19-19c-15-16-25-29-25-61l-42 0 0 11c0 23 9 45 25 60l26 27c8 8 13 19 13 30 0 24-20 43-43 43-23 0-43-19-43-43l-42 0c0 47 38 86 85 86 47 0 85-39 85-86 0-18-7-36-20-48z"/>
<glyph glyph-name="tablet-android" unicode="&#58;" d="M384 512l-256 0c-35 0-64-29-64-64l0-384c0-35 29-64 64-64l256 0c35 0 64 29 64 64l0 384c0 35-29 64-64 64z m-85-469l-86 0 0 21 86 0z m112 64l-310 0 0 341 310 0z"/>
<glyph glyph-name="swap-horiz" unicode="&#59;" d="M149 277l-85-85 85-85 0 64 150 0 0 42-150 0z m299 43l-85 85 0-64-150 0 0-42 150 0 0-64z"/>
<glyph glyph-name="radio-button-unchecked" unicode="&#60;" d="M256 469c-118 0-213-95-213-213 0-118 95-213 213-213 118 0 213 95 213 213 0 118-95 213-213 213z m0-384c-94 0-171 77-171 171 0 94 77 171 171 171 94 0 171-77 171-171 0-94-77-171-171-171z"/>
<glyph glyph-name="reorder" unicode="&#61;" d="M64 192l384 0 0 43-384 0z m0-85l384 0 0 42-384 0z m0 170l384 0 0 43-384 0z m0 128l0-42 384 0 0 42z"/>
<glyph glyph-name="repeat" unicode="&#62;" d="M149 363l214 0 0-64 85 85-85 85 0-64-256 0 0-128 42 0z m214-214l-214 0 0 64-85-85 85-85 0 64 256 0 0 128-42 0z"/>
<glyph glyph-name="save-alt" unicode="&#63;" d="M405 256l0-149-298 0 0 149-43 0 0-149c0-24 19-43 43-43l298 0c24 0 43 19 43 43l0 149z m-128-14l56 55 30-30-107-107-107 107 30 30 56-55 0 206 42 0z"/>
<glyph glyph-name="perm-identity" unicode="&#64;" d="M256 386c25 0 45-20 45-45 0-24-20-44-45-44-25 0-45 20-45 44 0 25 20 45 45 45m0-192c63 0 130-31 130-45l0-23-260 0 0 23c0 14 67 45 130 45m0 233c-47 0-85-39-85-86 0-47 38-85 85-85 47 0 85 38 85 85 0 47-38 86-85 86z m0-192c-57 0-171-29-171-86l0-64 342 0 0 64c0 57-114 86-171 86z"/>
<glyph glyph-name="payment" unicode="&#91;" d="M427 427l-342 0c-23 0-42-19-42-43l0-256c0-24 19-43 42-43l342 0c23 0 42 19 42 43l0 256c0 24-19 43-42 43z m0-299l-342 0 0 128 342 0z m0 213l-342 0 0 43 342 0z"/>
<glyph glyph-name="offline-bolt" unicode="&#93;" d="M256 469c-118 0-213-95-213-213 0-118 95-213 213-213 118 0 213 95 213 213 0 118-95 213-213 213z m-11-384l0 134-74 0 106 208 0-134 72 0z"/>
<glyph glyph-name="more-vert" unicode="&#94;" d="M256 341c23 0 43 20 43 43 0 23-20 43-43 43-23 0-43-20-43-43 0-23 20-43 43-43z m0-42c-23 0-43-20-43-43 0-23 20-43 43-43 23 0 43 20 43 43 0 23-20 43-43 43z m0-128c-23 0-43-20-43-43 0-23 20-43 43-43 23 0 43 20 43 43 0 23-20 43-43 43z"/>
<glyph glyph-name="keyboard-arrow-up" unicode="&#95;" d="M158 183l98 98 98-98 30 30-128 128-128-128z"/>
<glyph glyph-name="label" unicode="&#96;" d="M376 387c-8 11-20 18-35 18l-234 0c-24 0-43-19-43-42l0-214c0-23 19-42 43-42l234 0c15 0 27 7 35 18l93 131z"/>
<glyph glyph-name="language" unicode="&#123;" d="M256 469c-118 0-213-95-213-213 0-118 95-213 213-213 118 0 213 95 213 213 0 118-95 213-213 213z m148-128l-63 0c-7 27-17 53-30 76 40-13 72-40 93-76z m-148 85c18-26 32-54 41-85l-82 0c9 31 23 59 41 85z m-165-213c-4 14-6 28-6 43 0 15 2 29 6 43l72 0c-2-14-3-28-3-43 0-15 1-29 3-43z m17-42l63 0c7-27 17-53 30-76-40 13-72 40-93 76z m63 170l-63 0c21 36 53 63 93 76-13-23-23-49-30-76z m85-255c-18 26-32 54-41 85l82 0c-9-31-23-59-41-85z m50 127l-100 0c-2 14-3 28-3 43 0 15 1 29 3 43l100 0c2-14 3-28 3-43 0-15-1-29-3-43z m5-118c13 23 23 49 30 76l63 0c-21-36-53-63-93-76z m38 118c2 14 3 28 3 43 0 15-1 29-3 43l72 0c4-14 6-28 6-43 0-15-2-29-6-43z"/>
<glyph glyph-name="laptop-mac" unicode="&#124;" d="M427 128c23 0 42 19 42 43l0 234c0 24-19 43-42 43l-342 0c-23 0-42-19-42-43l0-234c0-24 19-43 42-43l-85 0c0-23 19-43 43-43l426 0c24 0 43 20 43 43z m-342 277l342 0 0-234-342 0z m171-298c-12 0-21 9-21 21 0 12 9 21 21 21 12 0 21-9 21-21 0-12-9-21-21-21z"/>
<glyph glyph-name="how-to-reg" unicode="&#125;" d="M192 149l64 63c-8 1-15 1-21 1-57 0-171-28-171-85l0-43 192 0z m43 107c47 0 85 38 85 85 0 47-38 86-85 86-47 0-86-39-86-86 0-47 39-85 86-85m95-181l-74 74 30 30 44-44 109 110 30-30z"/>
<glyph glyph-name="info" unicode="&#126;" d="M256 469c-118 0-213-95-213-213 0-118 95-213 213-213 118 0 213 95 213 213 0 118-95 213-213 213z m21-320l-42 0 0 128 42 0z m0 171l-42 0 0 43 42 0z"/>
<glyph glyph-name="local-shipping" unicode="&#92;" d="M427 341l-64 0 0 86-299 0c-23 0-43-20-43-43l0-235 43 0c0-35 29-64 64-64 35 0 64 29 64 64l128 0c0-35 29-64 64-64 35 0 64 29 64 64l43 0 0 107z m-299-224c-18 0-32 15-32 32 0 18 14 32 32 32 18 0 32-14 32-32 0-17-14-32-32-32z m288 192l42-53-95 0 0 53z m-32-192c-18 0-32 15-32 32 0 18 14 32 32 32 18 0 32-14 32-32 0-17-14-32-32-32z"/>
<glyph glyph-name="local-grocery-store" unicode="&#57344;" d="M149 128c-23 0-42-19-42-43 0-23 19-42 42-42 24 0 43 19 43 42 0 24-19 43-43 43z m-128 341l0-42 43 0 77-162-29-53c-3-5-5-13-5-20 0-23 19-43 42-43l256 0 0 43-247 0c-3 0-5 2-5 5l1 3 19 35 159 0c16 0 30 8 37 22l76 138c2 3 3 7 3 10 0 12-10 22-21 22l-316 0-20 42z m342-341c-24 0-43-19-43-43 0-23 19-42 43-42 23 0 42 19 42 42 0 24-19 43-42 43z"/>
<glyph glyph-name="photo" unicode="&#57345;" d="M448 107l0 298c0 24-19 43-43 43l-298 0c-24 0-43-19-43-43l0-298c0-24 19-43 43-43l298 0c24 0 43 19 43 43z m-267 117l54-64 74 96 96-128-298 0z"/>
<glyph glyph-name="photo-camera" unicode="&#57346;" d="M324 256c0-38-30-68-68-68-38 0-68 30-68 68 0 38 30 68 68 68 38 0 68-30 68-68z m-132 213l-39-42-68 0c-23 0-42-20-42-43l0-256c0-23 19-43 42-43l342 0c23 0 42 20 42 43l0 256c0 23-19 43-42 43l-68 0-39 42z m64-320c-59 0-107 48-107 107 0 59 48 107 107 107 59 0 107-48 107-107 0-59-48-107-107-107z"/>
<glyph glyph-name="shopping-basket" unicode="&#57347;" d="M367 320l-93 140c-4 6-11 9-18 9-7 0-14-3-18-9l-93-140-102 0c-12 0-22-10-22-21 0-2 1-4 1-6l54-198c5-18 22-31 41-31l278 0c19 0 36 13 41 31l54 198 1 6c0 11-10 21-22 21z m-175 0l64 94 64-94z m64-171c-23 0-43 20-43 43 0 23 20 43 43 43 23 0 43-20 43-43 0-23-20-43-43-43z"/>
<glyph glyph-name="sentiment-satisfied-alt" unicode="&#57348;" d="M363 309c0-17-15-32-32-32-18 0-32 15-32 32 0 18 14 32 32 32 17 0 32-14 32-32z m-150 0c0-17-14-32-32-32-17 0-32 15-32 32 0 18 15 32 32 32 18 0 32-14 32-32z m150 0c0-17-15-32-32-32-18 0-32 15-32 32 0 18 14 32 32 32 17 0 32-14 32-32z m-150 0c0-17-14-32-32-32-17 0-32 15-32 32 0 18 15 32 32 32 18 0 32-14 32-32z m43 160c-118 0-213-95-213-213 0-118 95-213 213-213 118 0 213 95 213 213 0 118-95 213-213 213z m0-384c-94 0-171 77-171 171 0 94 77 171 171 171 94 0 171-77 171-171 0-94-77-171-171-171z m0 54c50 0 92 31 109 74l-35 0c-15-25-42-42-74-42-32 0-59 17-74 42l-35 0c17-43 59-74 109-74z"/>
<glyph glyph-name="smartphone" unicode="&#57349;" d="M363 490l-214 1c-23 0-42-20-42-43l0-384c0-23 19-43 42-43l214 0c23 0 42 20 42 43l0 384c0 23-19 42-42 42z m0-383l-214 0 0 298 214 0z"/>
<glyph glyph-name="shopping-cart" unicode="&#57350;" d="M149 128c-23 0-42-19-42-43 0-23 19-42 42-42 24 0 43 19 43 42 0 24-19 43-43 43z m-128 341l0-42 43 0 77-162-29-53c-3-5-5-13-5-20 0-23 19-43 42-43l256 0 0 43-247 0c-3 0-5 2-5 5l1 3 19 35 159 0c16 0 30 8 37 22l76 138c2 3 3 7 3 10 0 12-10 22-21 22l-316 0-20 42z m342-341c-24 0-43-19-43-43 0-23 19-42 43-42 23 0 42 19 42 42 0 24-19 43-42 43z"/>
<glyph glyph-name="play-arrow" unicode="&#57351;" d="M171 405l0-298 234 149z"/>
<glyph glyph-name="play-circle-filled" unicode="&#57352;" d="M256 469c-118 0-213-95-213-213 0-118 95-213 213-213 118 0 213 95 213 213 0 118-95 213-213 213z m-43-309l0 192 128-96z"/>
<glyph glyph-name="lock-open" unicode="&#57353;" d="M256 149c23 0 43 20 43 43 0 23-20 43-43 43-23 0-43-20-43-43 0-23 20-43 43-43z m128 192l-21 0 0 43c0 59-48 107-107 107-59 0-107-48-107-107l41 0c0 36 30 66 66 66 36 0 66-30 66-66l0-43-194 0c-23 0-43-19-43-42l0-214c0-23 20-42 43-42l256 0c23 0 43 19 43 42l0 214c0 23-20 42-43 42z m0-256l-256 0 0 214 256 0z"/>
<glyph glyph-name="lock" unicode="&#57354;" d="M384 341l-21 0 0 43c0 59-48 107-107 107-59 0-107-48-107-107l0-43-21 0c-23 0-43-19-43-42l0-214c0-23 20-42 43-42l256 0c23 0 43 19 43 42l0 214c0 23-20 42-43 42z m-128-192c-23 0-43 20-43 43 0 23 20 43 43 43 23 0 43-20 43-43 0-23-20-43-43-43z m66 192l-132 0 0 43c0 36 30 66 66 66 36 0 66-30 66-66z"/>
<glyph glyph-name="input" unicode="&#57355;" d="M448 448l-384 0c-23 0-43-19-43-43l0-85 43 0 0 86 384 0 0-300-384 0 0 86-43 0 0-86c0-23 20-42 43-42l384 0c23 0 43 19 43 42l0 299c0 24-20 43-43 43z m-213-277l85 85-85 85 0-64-214 0 0-42 214 0z"/>
<glyph glyph-name="keyboard-arrow-down" unicode="&#57356;" d="M158 329l98-98 98 98 30-30-128-128-128 128z"/>
<glyph glyph-name="keyboard-arrow-left" unicode="&#57357;" d="M329 158l-98 98 98 98-30 30-128-128 128-128z"/>
<glyph glyph-name="keyboard-arrow-right" unicode="&#57358;" d="M183 158l98 98-98 98 30 30 128-128-128-128z"/>
<glyph glyph-name="more-horiz" unicode="&#57359;" d="M128 299c-23 0-43-20-43-43 0-23 20-43 43-43 23 0 43 20 43 43 0 23-20 43-43 43z m256 0c-23 0-43-20-43-43 0-23 20-43 43-43 23 0 43 20 43 43 0 23-20 43-43 43z m-128 0c-23 0-43-20-43-43 0-23 20-43 43-43 23 0 43 20 43 43 0 23-20 43-43 43z"/>
<glyph glyph-name="mail-outline" unicode="&#57360;" d="M427 427l-342 0c-23 0-42-20-42-43l0-256c0-23 19-43 42-43l342 0c23 0 42 20 42 43l0 256c0 23-19 43-42 43z m0-299l-342 0 0 213 171-106 171 106z m-171 149l-171 107 342 0z"/>
<glyph glyph-name="play-circle-outline" unicode="&#57361;" d="M213 160l128 96-128 96z m43 309c-118 0-213-95-213-213 0-118 95-213 213-213 118 0 213 95 213 213 0 118-95 213-213 213z m0-384c-94 0-171 77-171 171 0 94 77 171 171 171 94 0 171-77 171-171 0-94-77-171-171-171z"/>
<glyph glyph-name="radio-button-checked" unicode="&#57362;" d="M256 363c-59 0-107-48-107-107 0-59 48-107 107-107 59 0 107 48 107 107 0 59-48 107-107 107z m0 106c-118 0-213-95-213-213 0-118 95-213 213-213 118 0 213 95 213 213 0 118-95 213-213 213z m0-384c-94 0-171 77-171 171 0 94 77 171 171 171 94 0 171-77 171-171 0-94-77-171-171-171z"/>
<glyph glyph-name="stars" unicode="&#57363;" d="M256 469c-118 0-213-95-213-213 0-118 95-213 213-213 118 0 213 95 213 213 0 118-95 213-213 213z m90-341l-90 54-90-54 24 103-80 69 105 8 41 97 41-96 105-9-80-69z"/>
<glyph glyph-name="sort" unicode="&#57364;" d="M64 128l128 0 0 43-128 0z m0 256l0-43 384 0 0 43z m0-149l256 0 0 42-256 0z"/>
<glyph glyph-name="store" unicode="&#57365;" d="M427 427l-342 0 0-43 342 0z m21-214l0 43-21 107-342 0-21-107 0-43 21 0 0-128 214 0 0 128 85 0 0-128 43 0 0 128z m-192-85l-128 0 0 85 128 0z"/>
<glyph glyph-name="align-justify" unicode="&#57366;" d="M512 128l0-37c0-5-2-9-5-12-4-4-8-6-13-6l-476 0c-5 0-9 2-13 6-3 3-5 7-5 12l0 37c0 5 2 9 5 13 4 3 8 5 13 5l476 0c5 0 9-2 13-5 3-4 5-8 5-13z m0 110l0-37c0-5-2-9-5-13-4-3-8-5-13-5l-476 0c-5 0-9 2-13 5-3 4-5 8-5 13l0 37c0 5 2 9 5 13 4 3 8 5 13 5l476 0c5 0 9-2 13-5 3-4 5-8 5-13z m0 109l0-36c0-5-2-9-5-13-4-4-8-5-13-5l-476 0c-5 0-9 1-13 5-3 4-5 8-5 13l0 36c0 5 2 10 5 13 4 4 8 6 13 6l476 0c5 0 9-2 13-6 3-3 5-8 5-13z m0 110l0-36c0-5-2-10-5-13-4-4-8-6-13-6l-476 0c-5 0-9 2-13 6-3 3-5 8-5 13l0 36c0 5 2 9 5 13 4 4 8 5 13 5l476 0c5 0 9-1 13-5 3-4 5-8 5-13z"/>
<glyph glyph-name="align-left" unicode="&#57367;" d="M512 128l0-37c0-5-2-9-5-12-4-4-8-6-13-6l-476 0c-5 0-9 2-13 6-3 3-5 7-5 12l0 37c0 5 2 9 5 13 4 3 8 5 13 5l476 0c5 0 9-2 13-5 3-4 5-8 5-13z m-110 110l0-37c0-5-2-9-5-13-4-3-8-5-13-5l-366 0c-5 0-9 2-13 5-3 4-5 8-5 13l0 37c0 5 2 9 5 13 4 3 8 5 13 5l366 0c5 0 9-2 13-5 3-4 5-8 5-13z m73 109l0-36c0-5-1-9-5-13-4-4-8-5-13-5l-439 0c-5 0-9 1-13 5-3 4-5 8-5 13l0 36c0 5 2 10 5 13 4 4 8 6 13 6l439 0c5 0 9-2 13-6 4-3 5-8 5-13z m-109 110l0-36c0-5-2-10-6-13-3-4-8-6-13-6l-329 0c-5 0-9 2-13 6-3 3-5 8-5 13l0 36c0 5 2 9 5 13 4 4 8 5 13 5l329 0c5 0 10-1 13-5 4-4 6-8 6-13z"/>
<glyph glyph-name="angle-double-down" unicode="&#57368;" d="M399 265c0-2-1-5-3-6l-133-134c-2-1-5-2-7-2-2 0-5 1-7 2l-133 134c-2 1-3 4-3 6 0 3 1 5 3 7l15 14c1 2 4 3 6 3 3 0 5-1 7-3l112-112 112 112c2 2 4 3 7 3 2 0 5-1 6-3l15-14c2-2 3-4 3-7z m0 110c0-3-1-5-3-7l-133-133c-2-2-5-3-7-3-2 0-5 1-7 3l-133 133c-2 2-3 4-3 7 0 2 1 5 3 6l15 15c1 2 4 3 6 3 3 0 5-1 7-3l112-113 112 113c2 2 4 3 7 3 2 0 5-1 6-3l15-15c2-1 3-4 3-6z"/>
<glyph glyph-name="angle-double-left" unicode="&#57369;" d="M289 119c0-3-1-5-3-7l-14-14c-2-2-4-3-7-3-2 0-5 1-6 3l-134 133c-1 2-2 4-2 7 0 2 1 4 2 6l134 133c1 2 4 3 6 3 3 0 5-1 7-3l14-14c2-2 3-4 3-6 0-3-1-5-3-7l-112-112 112-113c2-1 3-4 3-6z m110 0c0-3-1-5-3-7l-15-14c-1-2-4-3-6-3-3 0-5 1-7 3l-133 133c-2 2-3 4-3 7 0 2 1 4 3 6l133 133c2 2 4 3 7 3 2 0 5-1 6-3l15-14c2-2 3-4 3-6 0-3-1-5-3-7l-113-112 113-113c2-1 3-4 3-6z"/>
<glyph glyph-name="angle-double-right" unicode="&#57370;" d="M280 238c0-3-1-5-3-7l-133-133c-2-2-4-3-7-3-2 0-5 1-6 3l-15 14c-2 2-3 4-3 7 0 2 1 5 3 6l113 113-113 112c-2 2-3 4-3 7 0 2 1 4 3 6l15 14c1 2 4 3 6 3 3 0 5-1 7-3l133-133c2-2 3-4 3-6z m109 0c0-3-1-5-2-7l-134-133c-1-2-4-3-6-3-3 0-5 1-7 3l-14 14c-2 2-3 4-3 7 0 2 1 5 3 6l112 113-112 112c-2 2-3 4-3 7 0 2 1 4 3 6l14 14c2 2 4 3 7 3 2 0 5-1 6-3l134-133c1-2 2-4 2-6z"/>
<glyph glyph-name="calendar" unicode="&#57371;" d="M55 37l82 0 0 82-82 0z m100 0l92 0 0 82-92 0z m-100 100l82 0 0 92-82 0z m100 0l92 0 0 92-92 0z m-100 110l82 0 0 82-82 0z m210-210l92 0 0 82-92 0z m-110 210l92 0 0 82-92 0z m220-210l82 0 0 82-82 0z m-110 100l92 0 0 92-92 0z m-100 247l0 82c0 3-1 5-3 7-2 2-4 2-7 2l-18 0c-2 0-4 0-6-2-2-2-3-4-3-7l0-82c0-2 1-5 3-6 2-2 4-3 6-3l18 0c3 0 5 1 7 3 2 1 3 4 3 6z m210-247l82 0 0 92-82 0z m-110 110l92 0 0 82-92 0z m110 0l82 0 0 82-82 0z m9 137l0 82c0 3-1 5-3 7-2 2-4 2-6 2l-18 0c-3 0-5 0-7-2-2-2-3-4-3-7l0-82c0-2 1-5 3-6 2-2 4-3 7-3l18 0c2 0 4 1 6 3 2 1 3 4 3 6z m110 18l0-365c0-10-4-19-11-26-7-7-16-11-26-11l-402 0c-10 0-19 4-26 11-7 7-11 16-11 26l0 365c0 10 4 19 11 26 7 7 16 11 26 11l36 0 0 27c0 13 5 24 14 33 9 9 20 13 32 13l18 0c13 0 24-4 33-13 9-9 13-20 13-33l0-27 110 0 0 27c0 13 4 24 13 33 9 9 20 13 33 13l18 0c12 0 23-4 32-13 9-9 14-20 14-33l0-27 36 0c10 0 19-4 26-11 7-7 11-16 11-26z"/>
<glyph glyph-name="odnoklassniki" unicode="&#57372;" d="M256 253c-36 0-66 13-92 38-25 25-38 56-38 91 0 36 13 67 38 92 26 25 56 38 92 38 36 0 66-13 92-38 25-25 38-56 38-92 0-35-13-66-38-91-26-25-56-38-92-38z m0 193c-18 0-33-6-45-18-12-13-19-28-19-46 0-17 7-32 19-45 12-12 27-18 45-18 18 0 33 6 45 18 12 13 19 28 19 45 0 18-7 33-19 46-12 12-27 18-45 18z m149-209c3-5 4-10 5-14 0-4 0-8-2-12-1-3-3-7-7-11-4-3-8-7-12-10-5-3-10-7-18-12-22-14-52-23-90-27l21-20 76-77c6-6 9-13 9-21 0-8-3-15-9-21l-3-3c-6-6-13-9-21-9-8 0-16 3-21 9-13 13-39 38-77 76l-76-76c-6-6-13-9-21-9-8 0-15 3-21 9l-3 3c-6 6-9 13-9 21 0 8 3 15 9 21l96 97c-38 4-68 13-90 27-8 5-13 9-18 12-4 3-8 7-12 10-4 4-6 8-7 11-2 4-2 8-2 12 1 4 2 9 5 14 1 4 4 7 8 10 3 3 7 5 12 6 4 2 9 2 16 0 6-2 12-5 18-10 1-1 3-2 4-3 2-2 6-4 13-7 6-4 13-7 19-9 7-2 16-5 27-7 10-2 21-3 32-3 17 0 34 2 50 7 16 5 27 10 34 15l11 7c6 5 12 8 18 10 7 2 12 2 16 0 5-1 9-3 12-6 4-3 7-6 8-10z"/>
<glyph glyph-name="odnoklassniki-square" unicode="&#57373;" d="M301 346c0-12-4-23-13-32-9-9-19-13-32-13-13 0-23 4-32 13-9 9-13 20-13 32 0 13 4 24 13 32 9 9 19 14 32 14 13 0 23-5 32-14 9-8 13-19 13-32z m62-103c-2 3-5 6-8 9-4 2-8 3-14 2-6 0-11-3-17-7-2-2-5-4-9-6-3-2-11-5-23-9-12-4-24-6-36-6-12 0-24 2-35 5-12 4-20 7-25 10l-8 6c-6 4-11 7-17 7-6 1-10 0-14-2-3-3-6-6-8-9-4-9-4-16 0-22 4-5 12-12 25-21 16-10 37-16 64-19l-14-15c-27-27-46-45-55-54-4-4-6-9-6-15 0-6 2-11 6-15l3-3c4-4 9-6 15-6 6 0 11 2 15 6l54 55c22-22 40-40 55-55 4-4 9-6 15-6 6 0 11 2 15 6l2 3c5 4 7 9 7 15 0 6-2 11-7 15l-54 54-15 15c27 3 48 9 64 19 13 9 21 16 25 21 4 6 4 13 0 22z m-14 103c0 26-9 48-28 66-18 18-39 27-65 27-26 0-47-9-65-27-19-18-28-40-28-66 0-25 9-47 28-65 18-18 39-27 65-27 26 0 47 9 65 27 19 18 28 40 28 65z m126 47l0-274c0-23-8-42-24-58-16-16-35-24-58-24l-274 0c-23 0-42 8-58 24-16 16-24 35-24 58l0 274c0 23 8 42 24 58 16 16 35 24 58 24l274 0c23 0 42-8 58-24 16-16 24-35 24-58z"/>
<glyph glyph-name="paper-plane" unicode="&#57374;" d="M504 509c6-5 9-11 8-18l-73-439c-1-6-4-10-10-13-2-2-5-2-8-2-3 0-5 0-7 1l-130 53-69-84c-3-5-8-7-14-7-2 0-4 0-6 1-4 1-7 4-9 7-2 3-3 6-3 10l0 100 247 303-306-265-113 47c-7 2-10 7-11 15 0 8 3 14 9 17l476 274c2 2 5 3 9 3 4 0 7-1 10-3z"/>
<glyph glyph-name="paper-plane-o" unicode="&#57375;" d="M504 509c6-5 9-11 8-18l-73-439c-1-6-4-10-10-13-2-2-5-2-8-2-3 0-5 0-7 1l-151 61-85-93c-3-4-8-6-13-6-3 0-5 0-7 1-4 1-6 4-9 7-2 3-3 6-3 10l0 129-135 56c-7 2-10 7-11 15-1 8 2 13 9 17l476 274c6 4 13 4 19 0z m-98-428l63 378-409-237 96-39 246 183-136-228z"/>
<glyph glyph-name="pencil-square-o" unicode="&#57376;" d="M254 174l33 33-44 43-33-33 0-16 28 0 0-27z m125 205c-3 3-6 3-9 0l-100-100c-3-3-3-6 0-9 3-3 6-3 9 0l100 100c3 3 3 6 0 9z m23-169l0-55c0-22-8-42-24-58-16-16-35-24-58-24l-238 0c-22 0-42 8-58 24-16 16-24 36-24 58l0 238c0 23 8 42 24 58 16 16 36 24 58 24l238 0c12 0 23-2 33-7 3-1 5-3 6-6 0-4-1-6-3-9l-14-14c-3-2-6-3-9-2-5 1-9 2-13 2l-238 0c-12 0-23-5-32-14-9-9-13-19-13-32l0-238c0-12 4-23 13-32 9-9 20-13 32-13l238 0c13 0 23 4 32 13 9 9 14 20 14 32l0 36c0 3 1 5 2 7l19 18c2 3 6 4 10 2 3-2 5-4 5-8z m-27 211l82-83-192-192-82 0 0 83z m127-38l-27-26-82 82 26 26c6 5 12 8 20 8 7 0 14-3 19-8l44-43c5-6 8-12 8-20 0-7-3-14-8-19z"/>
<glyph glyph-name="pencil" unicode="&#57377;" d="M140 73l26 26-67 67-26-26 0-30 37 0 0-37z m150 265c0 4-2 7-7 7-1 0-3-1-4-2l-155-155c-2-2-2-3-2-5 0-4 2-6 6-6 2 0 4 0 5 2l155 154c1 2 2 3 2 5z m-16 55l119-119-238-237-118 0 0 118z m195-27c0-10-3-19-10-26l-48-47-118 118 47 48c7 7 15 10 26 10 10 0 18-3 26-10l67-67c7-8 10-16 10-26z"/>
<glyph glyph-name="picture-o" unicode="&#57378;" d="M165 347c0-15-6-28-16-38-11-11-24-16-39-16-16 0-28 5-39 16-11 10-16 23-16 38 0 16 5 29 16 39 11 11 23 16 39 16 15 0 28-5 39-16 10-10 16-23 16-39z m292-109l0-128-402 0 0 55 91 91 46-46 146 147z m28 201l-458 0c-2 0-4-1-6-3-2-2-3-4-3-6l0-348c0-2 1-4 3-6 2-2 4-3 6-3l458 0c2 0 4 1 6 3 2 2 3 4 3 6l0 348c0 2-1 4-3 6-2 2-4 3-6 3z m45-9l0-348c0-12-4-23-13-32-9-9-20-13-32-13l-458 0c-12 0-23 4-32 13-9 9-13 20-13 32l0 348c0 12 4 23 13 32 9 9 20 13 32 13l458 0c12 0 23-4 32-13 9-9 13-20 13-32z"/>
<glyph glyph-name="pinterest-p" unicode="&#57379;" d="M73 341c0 21 4 40 11 59 7 18 17 34 29 47 13 14 27 25 44 35 16 10 34 18 53 23 19 5 38 7 57 7 31 0 59-6 84-19 26-13 47-31 64-55 16-24 24-52 24-82 0-19-2-36-6-54-3-18-9-34-17-51-8-16-17-30-28-42-12-13-25-22-42-30-16-7-34-11-54-11-13 0-26 3-38 9-13 7-22 15-28 26-2-8-4-19-8-33-3-14-5-23-6-27-1-4-3-11-6-20-3-9-6-16-8-20-2-4-5-10-9-18-4-8-8-15-13-22-5-7-11-15-18-25l-4-1-2 2c-3 30-5 48-5 54 0 18 2 37 7 59 4 22 10 49 19 82 8 33 13 53 14 58-6 13-9 29-9 49 0 15 5 30 15 44 10 14 23 21 38 21 11 0 21-4 27-12 6-7 10-17 10-29 0-12-4-31-13-54-8-24-12-42-12-54 0-12 4-22 12-30 9-8 19-12 32-12 10 0 20 3 29 8 9 4 16 11 22 19 6 8 11 17 16 27 5 10 8 21 11 32 3 11 4 21 6 31 1 10 2 20 2 29 0 33-11 58-32 77-21 18-48 27-81 27-38 0-70-12-96-37-25-24-38-56-38-93 0-9 1-17 4-25 2-8 5-14 7-18 3-5 6-9 8-13 2-4 4-7 4-9 0-5-2-12-5-21-3-8-6-13-10-13-1 0-2 1-5 1-10 3-18 8-26 16-8 8-13 17-17 27-5 10-8 21-10 31-2 10-3 21-3 30z"/>
<glyph glyph-name="pinterest-square" unicode="&#57380;" d="M393 475c23 0 42-8 58-24 16-16 24-35 24-58l0-274c0-23-8-42-24-58-16-16-35-24-58-24l-207 0c16 23 26 43 31 60 2 6 7 26 15 59 4-7 11-14 21-19 10-5 21-8 32-8 35 0 63 14 85 42 21 28 32 64 32 107 0 16-3 31-10 46-6 15-16 29-27 40-12 12-27 21-44 28-17 7-36 10-56 10-20 0-38-2-56-8-17-5-32-13-43-22-12-9-23-19-31-31-9-12-15-24-19-37-4-12-6-25-6-37 0-20 3-37 11-52 8-15 19-25 33-31 3-1 5-1 7 0 2 1 3 2 4 5 2 9 3 14 4 18 2 4 1 8-3 12-9 11-14 26-14 42 0 29 10 53 30 74 19 20 45 30 77 30 28 0 50-8 66-23 16-15 24-35 24-60 0-32-6-59-19-82-13-22-30-33-50-33-11 0-20 4-27 12-7 8-10 18-7 30 2 6 4 15 8 26 3 11 6 21 8 29 2 8 3 16 3 21 0 10-2 18-7 24-5 6-13 9-22 9-12 0-21-5-30-16-8-11-12-24-12-40 0-14 3-25 7-35l-28-118c-4-19-5-43-2-72l-52 0c-23 0-42 8-58 24-16 16-24 35-24 58l0 274c0 23 8 42 24 58 16 16 35 24 58 24z"/>
<glyph glyph-name="question-circle" unicode="&#57381;" d="M293 119l0 55c0 2-1 5-3 6-2 2-4 3-7 3l-54 0c-3 0-5-1-7-3-2-1-3-4-3-6l0-55c0-3 1-5 3-7 2-1 4-2 7-2l54 0c3 0 5 1 7 2 2 2 3 4 3 7z m73 192c0 17-6 32-16 46-11 15-24 26-40 34-16 7-32 11-48 11-47 0-82-20-106-61-3-4-2-8 2-12l38-28c1-1 3-2 5-2 3 0 6 1 7 4 10 13 19 21 25 26 6 4 15 7 24 7 10 0 18-3 25-8 7-5 11-10 11-17 0-7-2-13-6-17-4-4-10-9-20-13-12-5-23-13-33-25-10-11-15-23-15-35l0-11c0-2 1-5 3-6 2-2 4-3 7-3l54 0c3 0 5 1 7 3 2 1 3 4 3 6 0 4 2 9 6 14 4 6 9 11 15 15 6 3 11 6 14 8 4 2 8 5 13 10 6 4 10 9 13 13 3 5 6 11 8 18 3 7 4 14 4 23z m109-55c0-40-9-77-29-110-20-34-46-60-80-80-33-20-70-29-110-29-40 0-77 9-110 29-34 20-60 46-80 80-20 33-29 70-29 110 0 40 9 77 29 110 20 34 46 60 80 80 33 20 70 29 110 29 40 0 77-9 110-29 34-20 60-46 80-80 20-33 29-70 29-110z"/>
<glyph glyph-name="question" unicode="&#57382;" d="M311 153l0-68c0-3-1-6-4-8-2-3-5-4-8-4l-68 0c-3 0-6 1-8 4-2 2-4 5-4 8l0 68c0 3 2 6 4 8 2 2 5 4 8 4l68 0c3 0 6-2 8-4 3-2 4-5 4-8z m90 172c0-11-1-20-4-29-3-9-7-17-10-22-4-6-9-11-16-17-7-6-12-10-16-13-5-2-10-6-18-10-8-4-14-10-19-18-6-8-8-15-8-19 0-4-1-7-4-10-2-3-5-4-8-4l-68 0c-3 0-6 2-8 5-2 4-3 7-3 11l0 13c0 16 7 30 19 44 12 14 26 25 41 31 11 6 19 11 24 16 5 6 7 13 7 22 0 8-4 15-13 21-9 6-19 9-31 9-12 0-23-2-31-8-7-5-17-16-30-33-3-3-6-4-9-4-3 0-5 0-7 2l-47 36c-3 2-4 4-5 7 0 3 0 5 2 8 30 51 75 76 132 76 16 0 31-3 46-9 16-6 30-14 42-24 13-10 23-22 30-36 8-15 12-30 12-45z"/>
<glyph glyph-name="rocket" unicode="&#57383;" d="M430 384c0 8-3 14-8 19-6 6-12 8-20 8-7 0-14-2-19-8-5-5-8-11-8-19 0-8 3-14 8-19 5-6 12-8 19-8 8 0 14 2 20 8 5 5 8 11 8 19z m64 82c0-47-7-88-22-123-14-34-38-69-72-103-16-15-34-32-56-50l-6-108c0-3-2-6-4-8l-110-64c-1 0-3-1-5-1-2 0-4 1-6 3l-18 18c-3 3-4 6-3 9l25 79-81 80-79-24c0 0-1 0-2 0-3 0-5 1-7 2l-18 19c-3 3-4 7-1 11l64 109c1 3 4 5 7 5l108 6c19 21 35 40 51 55 35 36 69 61 102 74 32 14 73 20 123 20 3 0 5 0 7-2 2-2 3-4 3-7z"/>
<glyph glyph-name="sort-amount-asc" unicode="&#57384;" d="M210 101c0-3-1-5-3-7l-91-91c-2-2-4-3-6-3-3 0-5 1-7 3l-91 91c-3 3-4 6-2 10 1 4 4 6 8 6l55 0 0 393c0 3 1 5 3 6 1 2 4 3 6 3l55 0c3 0 5-1 7-3 1-1 2-3 2-6l0-393 55 0c3 0 5-1 7-3 1-2 2-4 2-6z m302-37l0-55c0-3-1-5-3-6-1-2-3-3-6-3l-238 0c-3 0-5 1-6 3-2 1-3 3-3 6l0 55c0 3 1 5 3 7 1 1 3 2 6 2l238 0c3 0 5-1 6-2 2-2 3-4 3-7z m-55 146l0-55c0-2-1-4-2-6-2-2-4-3-7-3l-183 0c-3 0-5 1-6 3-2 2-3 4-3 6l0 55c0 3 1 5 3 7 1 2 3 2 6 2l183 0c3 0 5 0 7-2 1-2 2-4 2-7z m-55 147l0-55c0-3-1-5-2-7-2-2-4-2-7-2l-128 0c-3 0-5 0-6 2-2 2-3 4-3 7l0 55c0 2 1 4 3 6 1 2 3 3 6 3l128 0c3 0 5-1 7-3 1-2 2-4 2-6z m-55 146l0-55c0-3 0-5-2-7-2-1-4-2-7-2l-73 0c-3 0-5 1-6 2-2 2-3 4-3 7l0 55c0 3 1 5 3 6 1 2 3 3 6 3l73 0c3 0 5-1 7-3 2-1 2-3 2-6z"/>
<glyph glyph-name="sort-amount-desc" unicode="&#57385;" d="M347 64l0-55c0-3 0-5-2-6-2-2-4-3-7-3l-73 0c-3 0-5 1-6 3-2 1-3 3-3 6l0 55c0 3 1 5 3 7 1 1 3 2 6 2l73 0c3 0 5-1 7-2 2-2 2-4 2-7z m-137 37c0-3-1-5-3-7l-91-91c-2-2-4-3-6-3-3 0-5 1-7 3l-91 91c-3 3-4 6-2 10 1 4 4 6 8 6l55 0 0 393c0 3 1 5 3 6 1 2 4 3 6 3l55 0c3 0 5-1 7-3 1-1 2-3 2-6l0-393 55 0c3 0 5-1 7-3 1-2 2-4 2-6z m192 109l0-55c0-2-1-4-2-6-2-2-4-3-7-3l-128 0c-3 0-5 1-6 3-2 2-3 4-3 6l0 55c0 3 1 5 3 7 1 2 3 2 6 2l128 0c3 0 5 0 7-2 1-2 2-4 2-7z m55 147l0-55c0-3-1-5-2-7-2-2-4-2-7-2l-183 0c-3 0-5 0-6 2-2 2-3 4-3 7l0 55c0 2 1 4 3 6 1 2 3 3 6 3l183 0c3 0 5-1 7-3 1-2 2-4 2-6z m55 146l0-55c0-3-1-5-3-7-1-1-3-2-6-2l-238 0c-3 0-5 1-6 2-2 2-3 4-3 7l0 55c0 3 1 5 3 6 1 2 3 3 6 3l238 0c3 0 5-1 6-3 2-1 3-3 3-6z"/>
<glyph glyph-name="skype" unicode="&#57386;" d="M372 208c0 10-2 19-6 26-4 8-8 15-14 20-5 5-12 10-21 14-8 4-16 7-23 10-7 2-16 4-25 6l-30 7c-6 1-10 2-12 3-3 1-6 2-10 3-4 2-7 3-9 5-2 2-3 4-5 6-1 2-2 5-2 9 0 14 14 22 41 22 8 0 16-2 22-4 7-2 12-5 16-8 4-3 7-6 11-10 3-3 7-6 11-8 4-2 9-3 14-3 9 0 16 3 21 9 6 6 8 13 8 22 0 10-5 20-16 28-10 9-24 15-40 20-17 4-34 6-52 6-13 0-26-1-38-4-12-3-23-8-34-14-11-6-19-14-25-25-7-10-10-22-10-36 0-12 2-22 5-31 4-8 9-16 16-21 7-6 15-11 23-14 8-4 18-7 30-9l41-11c18-4 28-7 32-10 7-4 10-10 10-17 0-8-4-14-12-19-7-4-17-7-30-7-10 0-18 2-26 5-8 3-14 6-19 11-4 4-9 8-13 13-4 4-8 8-13 11-4 3-10 4-15 4-10 0-17-3-22-8-5-6-7-13-7-22 0-17 12-32 35-45 23-12 51-19 83-19 14 0 27 2 40 6 13 3 24 8 35 15 11 7 19 16 25 27 7 11 10 23 10 37z m103-62c0-30-10-56-32-77-21-22-47-32-77-32-25 0-47 7-67 22-15-3-29-4-43-4-27 0-53 5-78 16-25 10-46 25-64 43-18 18-33 39-43 64-11 25-16 51-16 78 0 14 1 28 4 43-15 20-22 42-22 67 0 30 10 56 32 77 21 22 47 32 77 32 25 0 47-7 67-22 15 3 29 4 43 4 27 0 53-5 78-16 25-10 46-25 64-43 18-18 33-39 43-64 11-25 16-51 16-78 0-14-1-28-4-43 15-20 22-42 22-67z"/>
<glyph glyph-name="spinner" unicode="&#57387;" d="M150 114c0-10-3-19-10-26-8-7-16-11-26-11-10 0-19 4-26 11-7 7-11 16-11 26 0 10 4 18 11 26 7 7 16 10 26 10 10 0 18-3 26-10 7-8 10-16 10-26z m143-59c0-10-4-19-11-26-7-7-16-11-26-11-10 0-19 4-26 11-7 7-11 16-11 26 0 10 4 19 11 26 7 7 16 10 26 10 10 0 19-3 26-10 7-7 11-16 11-26z m-202 201c0-10-3-19-10-26-7-7-16-11-26-11-10 0-19 4-26 11-7 7-11 16-11 26 0 10 4 19 11 26 7 7 16 11 26 11 10 0 19-4 26-11 7-7 10-16 10-26z m344-142c0-10-4-19-11-26-7-7-16-11-26-11-10 0-18 4-26 11-7 7-10 16-10 26 0 10 3 18 10 26 8 7 16 10 26 10 10 0 19-3 26-10 7-8 11-16 11-26z m-276 284c0-12-4-23-13-32-9-9-20-13-32-13-13 0-24 4-33 13-9 9-13 20-13 32 0 13 4 24 13 33 9 9 20 13 33 13 12 0 23-4 32-13 9-9 13-20 13-33z m335-142c0-10-4-19-11-26-7-7-16-11-26-11-10 0-19 4-26 11-7 7-10 16-10 26 0 10 3 19 10 26 7 7 16 11 26 11 10 0 19-4 26-11 7-7 11-16 11-26z m-183 201c0-15-5-28-16-39-11-10-24-16-39-16-15 0-28 6-39 16-11 11-16 24-16 39 0 15 5 28 16 39 11 11 24 16 39 16 15 0 28-5 39-16 11-11 16-24 16-39z m151-59c0-17-6-33-19-45-12-12-27-19-45-19-17 0-33 7-45 19-12 12-19 28-19 45 0 18 7 33 19 45 12 13 28 19 45 19 18 0 33-6 45-19 13-12 19-27 19-45z"/>
<glyph glyph-name="search-1" unicode="&#57388;" d="M347 274c0 36-12 66-37 91-25 25-55 37-91 37-35 0-65-12-90-37-25-25-38-55-38-91 0-35 13-65 38-90 25-25 55-38 90-38 36 0 66 13 91 38 25 25 37 55 37 90z m147-237c0-10-4-19-11-26-7-7-16-11-26-11-10 0-19 4-26 11l-98 98c-34-24-72-36-114-36-27 0-53 5-78 16-25 11-46 25-64 43-18 18-32 39-43 64-10 25-16 51-16 78 0 28 6 54 16 78 11 25 25 47 43 65 18 18 39 32 64 43 25 10 51 15 78 15 28 0 54-5 79-15 24-11 46-25 64-43 18-18 32-40 43-65 10-24 16-50 16-78 0-42-12-80-36-114l98-98c7-7 11-15 11-25z"/>
<glyph glyph-name="star-o" unicode="&#57389;" d="M343 225l88 85-121 18-54 109-54-109-121-18 88-85-21-120 108 57 108-57z m151 102c0-4-3-9-8-14l-103-101 24-143c0-1 0-3 0-5 0-10-3-15-11-15-4 0-8 2-12 4l-128 67-128-67c-4-2-8-4-12-4-4 0-7 2-9 5-2 2-3 6-3 10 0 1 0 3 1 5l24 143-104 101c-4 6-7 10-7 14 0 7 6 12 16 13l144 21 64 130c4 8 8 12 14 12 6 0 10-4 14-12l64-130 144-21c10-1 16-6 16-13z"/>
<glyph glyph-name="tag" unicode="&#57390;" d="M165 384c0 10-4 19-11 26-7 7-16 11-26 11-10 0-19-4-26-11-7-7-11-16-11-26 0-10 4-19 11-26 7-7 16-11 26-11 10 0 19 4 26 11 7 7 11 16 11 26z m304-165c0-10-3-18-10-25l-140-141c-8-7-17-10-26-10-11 0-19 3-26 10l-204 205c-8 7-14 16-19 29-5 12-7 23-7 33l0 119c0 10 3 18 10 26 8 7 16 10 26 10l119 0c10 0 21-2 33-7 13-5 22-11 30-19l204-204c7-7 10-16 10-26z"/>
<glyph glyph-name="thumbs-o-down" unicode="&#57391;" d="M110 384c0 5-2 9-6 13-3 3-8 5-13 5-5 0-9-2-12-5-4-4-6-8-6-13 0-5 2-9 6-13 3-3 7-5 12-5 5 0 10 2 13 5 4 4 6 8 6 13z m329-165c0 7-2 15-6 24-4 8-9 13-16 13 3 3 6 8 8 14 1 5 2 11 2 15 0 14-5 25-15 34 4 7 5 13 5 20 0 7-1 14-5 21-3 7-7 12-13 15 1 6 1 11 1 16 0 16-4 28-14 36-9 8-22 12-39 12l-36 0c-25 0-58-7-98-21-1 0-4-1-8-3-5-2-8-3-10-4-2 0-6-1-10-3-5-1-8-2-11-3-3-1-6-1-10-2-3 0-6-1-9-1l-9 0 0-183 9 0c3 0 7 0 11-2 3-2 7-4 11-8 4-3 8-7 11-10 3-3 7-8 11-13 5-5 8-9 10-12 3-3 6-7 9-11 4-5 6-8 7-9 10-13 18-22 22-26 8-8 13-19 17-31 3-13 6-25 9-36 2-11 5-19 10-24 19 0 31 4 37 13 6 9 9 23 9 41 0 12-4 27-14 46-9 20-13 35-13 46l100 0c10 0 18 4 26 11 7 7 11 16 11 25z m36 0c0-19-7-37-21-51-15-14-32-22-52-22l-50 0c9-19 14-37 14-55 0-22-4-40-10-53-7-13-17-23-29-29-13-6-28-9-44-9-9 0-18 4-25 11-7 6-12 14-16 23-4 9-6 18-7 26-1 8-3 16-5 24-2 8-5 14-9 18-9 10-19 22-30 37-20 25-33 39-40 44l-78 0c-10 0-19 3-26 11-7 7-10 15-10 25l0 183c0 10 3 19 10 26 7 7 16 11 26 11l82 0c5 0 18 4 40 11 24 9 45 15 64 19 18 4 37 6 57 6l32 0c26 0 48-7 64-22 17-15 25-36 25-62l0-1c11-15 17-32 17-51 0-4 0-8-1-12 7-13 11-27 11-42 0-6-1-13-3-19 10-14 14-30 14-47z"/>
<glyph glyph-name="thumbs-o-up" unicode="&#57392;" d="M110 128c0 5-2 9-6 13-3 3-8 5-13 5-5 0-9-2-12-5-4-4-6-8-6-13 0-5 2-9 6-13 3-3 7-5 12-5 5 0 10 2 13 5 4 4 6 8 6 13z m329 165c0 9-4 18-11 25-8 7-16 11-26 11l-100 0c0 11 4 26 13 46 10 19 14 34 14 46 0 18-3 32-9 41-6 9-18 13-37 13-5-5-8-13-10-24-3-11-6-23-9-36-4-12-9-23-17-31-4-4-12-13-22-26-1-1-3-4-7-9-3-4-6-8-9-11-2-3-5-7-10-12-4-5-8-10-11-13-3-3-7-7-11-10-4-4-8-6-11-8-4-2-8-2-11-2l-9 0 0-183 9 0c3 0 6-1 9-1 4-1 7-1 10-2 3-1 6-2 11-3 4-2 8-3 10-3 2-1 5-2 10-4 4-2 7-3 8-3 40-14 73-21 98-21l34 0c37 0 55 16 55 48 0 5 0 10-1 16 6 3 10 8 13 15 4 7 5 14 5 21 0 7-1 13-5 20 10 9 15 20 15 34 0 4-1 10-2 15-2 6-5 11-8 14 7 0 12 5 16 13 4 9 6 17 6 24z m36 0c0-17-4-33-14-47 2-6 3-13 3-19 0-15-4-29-11-42 1-4 1-8 1-12 0-19-6-36-17-51 0-26-8-47-24-62-17-16-38-23-65-23l-37 0c-18 0-36 2-54 6-18 4-39 11-62 19-22 7-35 11-40 11l-82 0c-10 0-19 4-26 11-7 7-10 16-10 26l0 183c0 10 3 18 10 25 7 8 16 11 26 11l78 0c7 5 20 19 40 44 11 15 21 27 30 37 5 5 8 13 10 24 2 12 5 24 9 37 4 12 10 22 18 30 7 7 16 11 25 11 16 0 31-3 44-9 12-6 22-16 29-29 6-13 10-31 10-53 0-18-5-36-14-55l50 0c20 0 37-8 52-22 14-14 21-32 21-51z"/>
<glyph glyph-name="thumbs-up" unicode="&#57393;" d="M91 128c0 5-1 9-5 13-4 3-8 5-13 5-5 0-9-2-13-5-3-4-5-8-5-13 0-5 2-9 5-13 4-4 8-5 13-5 5 0 9 1 13 5 4 4 5 8 5 13z m46 146l0-183c0-5-2-9-5-12-4-4-8-6-13-6l-82 0c-5 0-10 2-13 6-4 3-6 7-6 12l0 183c0 5 2 10 6 13 3 4 8 6 13 6l82 0c5 0 9-2 13-6 3-3 5-8 5-13z m338 0c0-16-5-30-15-42 3-9 4-16 4-22 1-14-4-28-12-39 3-11 3-22 0-34-3-10-8-19-16-26 2-22-3-39-14-52-12-15-31-22-56-22l-37 0c-12 0-26 1-41 4-15 3-26 6-35 8-8 3-19 7-34 12-24 8-39 12-45 12-5 0-10 2-13 6-4 3-6 7-6 12l0 184c0 4 2 8 6 12 3 4 7 5 12 6 4 0 12 6 22 17 9 11 19 22 28 34 13 17 23 28 29 35 4 3 7 8 9 13 3 6 4 11 5 14 1 4 2 9 4 17 1 8 3 14 4 18 1 4 2 9 5 15 3 5 6 10 10 14 3 4 8 5 13 5 8 0 16-1 23-3 7-2 13-4 17-7 5-3 9-7 12-12 3-4 5-9 7-12 1-4 2-9 3-15 1-5 1-10 2-13 0-2 0-6 0-11 0-7-1-14-3-21-2-8-4-13-5-18-2-4-5-9-8-16-1-1-2-2-3-5-1-2-3-4-3-6-1-2-2-4-3-7l80 0c14 0 27-5 38-16 11-11 16-24 16-39z"/>
<glyph glyph-name="thumbs-down" unicode="&#57394;" d="M91 347c0-5-1-9-5-12-4-4-8-6-13-6-5 0-9 2-13 6-3 3-5 7-5 12 0 6 2 10 5 13 4 4 8 6 13 6 5 0 9-2 13-6 4-3 5-7 5-13z m46-146l0 183c0 5-2 9-5 13-4 3-8 5-13 5l-82 0c-5 0-10-2-13-5-4-4-6-8-6-13l0-183c0-5 2-9 6-13 3-3 8-5 13-5l82 0c5 0 9 2 13 5 3 4 5 8 5 13z m323 43c10-12 15-26 15-43 0-15-5-28-16-38-11-11-24-17-38-17l-80 0c1-2 2-5 3-7 0-1 2-4 3-6 1-2 2-4 3-5 3-7 6-12 7-16 2-4 4-10 6-17 2-7 3-15 3-22 0-4 0-8 0-11-1-3-1-7-2-13-1-6-2-10-3-14-2-4-4-8-7-13-3-5-7-9-12-12-4-3-10-5-17-7-7-2-15-3-23-3-5 0-10 2-13 5-4 4-7 9-10 15-3 5-4 10-5 15-1 4-3 10-4 17-2 8-3 14-4 17-1 4-2 8-5 14-2 6-5 10-9 14-6 6-16 18-29 34-9 12-19 24-28 35-10 11-18 16-22 17-5 0-9 2-12 5-4 4-6 8-6 13l0 183c0 5 2 9 6 13 3 3 8 5 13 5 6 0 21 5 45 13 15 5 26 9 34 11 9 3 20 5 35 8 15 3 29 5 41 5l37 0c25-1 44-8 56-22 11-14 16-31 14-52 8-7 13-16 16-27 3-12 3-23 0-33 8-12 13-25 12-40 0-6-1-13-4-21z"/>
<glyph glyph-name="th-list" unicode="&#57395;" d="M146 155l0-54c0-8-2-15-8-20-5-5-12-8-19-8l-92 0c-7 0-14 3-19 8-5 5-8 12-8 20l0 54c0 8 3 15 8 20 5 5 12 8 19 8l92 0c7 0 14-3 19-8 6-5 8-12 8-20z m0 147l0-55c0-8-2-14-8-20-5-5-12-8-19-8l-92 0c-7 0-14 3-19 8-5 6-8 12-8 20l0 55c0 7 3 14 8 19 5 5 12 8 19 8l92 0c7 0 14-3 19-8 6-5 8-12 8-19z m366-147l0-54c0-8-3-15-8-20-5-5-12-8-19-8l-275 0c-7 0-14 3-19 8-5 5-8 12-8 20l0 54c0 8 3 15 8 20 5 5 12 8 19 8l275 0c7 0 14-3 19-8 5-5 8-12 8-20z m-366 293l0-55c0-7-2-14-8-19-5-6-12-8-19-8l-92 0c-7 0-14 2-19 8-5 5-8 12-8 19l0 55c0 8 3 14 8 19 5 6 12 8 19 8l92 0c7 0 14-2 19-8 6-5 8-11 8-19z m366-146l0-55c0-8-3-14-8-20-5-5-12-8-19-8l-275 0c-7 0-14 3-19 8-5 6-8 12-8 20l0 55c0 7 3 14 8 19 5 5 12 8 19 8l275 0c7 0 14-3 19-8 5-5 8-12 8-19z m0 146l0-55c0-7-3-14-8-19-5-6-12-8-19-8l-275 0c-7 0-14 2-19 8-5 5-8 12-8 19l0 55c0 8 3 14 8 19 5 6 12 8 19 8l275 0c7 0 14-2 19-8 5-5 8-11 8-19z"/>
<glyph glyph-name="trash" unicode="&#57396;" d="M201 119l0 201c0 3-1 5-2 7-2 1-4 2-7 2l-18 0c-3 0-5-1-7-2-2-2-2-4-2-7l0-201c0-3 0-5 2-7 2-1 4-2 7-2l18 0c3 0 5 1 7 2 1 2 2 4 2 7z m73 0l0 201c0 3-1 5-2 7-2 1-4 2-7 2l-18 0c-3 0-5-1-7-2-1-2-2-4-2-7l0-201c0-3 1-5 2-7 2-1 4-2 7-2l18 0c3 0 5 1 7 2 1 2 2 4 2 7z m73 0l0 201c0 3 0 5-2 7-2 1-4 2-7 2l-18 0c-3 0-5-1-7-2-1-2-2-4-2-7l0-201c0-3 1-5 2-7 2-1 4-2 7-2l18 0c3 0 5 1 7 2 2 2 2 4 2 7z m-155 283l128 0-14 34c-1 1-3 2-5 3l-90 0c-2-1-4-2-5-3z m265-9l0-18c0-3-1-5-2-7-2-1-4-2-7-2l-27 0 0-271c0-16-5-30-14-41-9-12-20-17-32-17l-238 0c-12 0-23 5-32 16-9 11-14 25-14 41l0 272-27 0c-3 0-5 1-7 2-1 2-2 4-2 7l0 18c0 3 1 5 2 7 2 1 4 2 7 2l88 0 20 48c3 7 8 13 16 18 7 5 15 7 22 7l92 0c7 0 15-2 22-7 8-5 13-11 16-18l20-48 88 0c3 0 5-1 7-2 1-2 2-4 2-7z"/>
<glyph glyph-name="trash-o" unicode="&#57397;" d="M201 302l0-165c0-3-1-5-2-6-2-2-4-3-7-3l-18 0c-3 0-5 1-7 3-2 1-2 3-2 6l0 165c0 2 0 5 2 6 2 2 4 3 7 3l18 0c3 0 5-1 7-3 1-1 2-4 2-6z m73 0l0-165c0-3-1-5-2-6-2-2-4-3-7-3l-18 0c-3 0-5 1-7 3-1 1-2 3-2 6l0 165c0 2 1 5 2 6 2 2 4 3 7 3l18 0c3 0 5-1 7-3 1-1 2-4 2-6z m73 0l0-165c0-3 0-5-2-6-2-2-4-3-7-3l-18 0c-3 0-5 1-7 3-1 1-2 3-2 6l0 165c0 2 1 5 2 6 2 2 4 3 7 3l18 0c3 0 5-1 7-3 2-1 2-4 2-6z m37-207l0 271-256 0 0-271c0-4 1-8 2-12 1-3 3-6 4-7 2-2 3-3 3-3l238 0c0 0 1 1 3 3 1 1 3 4 4 7 1 4 2 8 2 12z m-192 307l128 0-14 34c-1 1-3 2-5 3l-90 0c-2-1-4-2-5-3z m265-9l0-18c0-3-1-5-2-7-2-1-4-2-7-2l-27 0 0-271c0-16-5-30-14-41-9-12-20-17-32-17l-238 0c-12 0-23 5-32 16-9 11-14 25-14 41l0 272-27 0c-3 0-5 1-7 2-1 2-2 4-2 7l0 18c0 3 1 5 2 7 2 1 4 2 7 2l88 0 20 48c3 7 8 13 16 18 7 5 15 7 22 7l92 0c7 0 15-2 22-7 8-5 13-11 16-18l20-48 88 0c3 0 5-1 7-2 1-2 2-4 2-7z"/>
<glyph glyph-name="toggle-off-1" unicode="&#57398;" d="M293 256c0 20-4 39-12 57-8 18-18 33-31 46-13 14-29 24-47 32-18 7-37 11-57 11-20 0-38-4-56-11-18-8-34-18-47-32-13-13-24-28-31-46-8-18-12-37-12-57 0-20 4-39 12-57 7-18 18-33 31-46 13-14 29-24 47-32 18-7 36-11 56-11 20 0 39 4 57 11 18 8 34 18 47 32 13 13 23 28 31 46 8 18 12 37 12 57z m219 0c0 20-4 39-12 57-7 18-18 33-31 46-13 14-29 24-47 32-18 7-36 11-56 11l-111 0c23-17 41-38 54-64 14-25 20-53 20-82 0-29-6-57-20-82-13-26-31-47-54-64l111 0c20 0 38 4 56 11 18 8 34 18 47 32 13 13 24 28 31 46 8 18 12 37 12 57z m37 0c0-25-5-48-15-71-10-23-23-42-39-58-16-17-36-30-58-39-23-10-47-15-71-15l-220 0c-24 0-48 5-71 15-22 9-42 22-58 39-16 16-29 35-39 58-10 23-15 46-15 71 0 25 5 48 15 71 10 23 23 42 39 58 16 17 36 30 58 39 23 10 47 15 71 15l220 0c24 0 48-5 71-15 22-9 42-22 58-39 16-16 29-35 39-58 10-23 15-46 15-71z"/>
<glyph glyph-name="toggle-on-1" unicode="&#57399;" d="M-37 256c0 25 5 48 15 71 10 23 23 42 39 58 16 17 36 30 58 39 23 10 47 15 71 15l220 0c24 0 48-5 71-15 22-9 42-22 58-39 16-16 29-35 39-58 10-23 15-46 15-71 0-25-5-48-15-71-10-23-23-42-39-58-16-17-36-30-58-39-23-10-47-15-71-15l-220 0c-24 0-48 5-71 15-22 9-42 22-58 39-16 16-29 35-39 58-10 23-15 46-15 71z m403-146c20 0 38 4 56 11 18 8 34 18 47 32 13 13 24 28 31 46 8 18 12 37 12 57 0 20-4 39-12 57-7 18-18 33-31 46-13 14-29 24-47 32-18 7-36 11-56 11-20 0-39-4-57-11-18-8-34-18-47-32-13-13-23-28-31-46-8-18-12-37-12-57 0-20 4-39 12-57 8-18 18-33 31-46 13-14 29-24 47-32 18-7 37-11 57-11z"/>
<glyph glyph-name="tumblr" unicode="&#57400;" d="M379 132l23-67c-4-7-15-13-31-19-17-6-34-9-51-9-20-1-38 2-54 7-17 5-30 12-41 21-11 9-20 19-27 30-8 12-13 23-16 35-3 11-5 22-5 33l0 156-48 0 0 61c14 5 26 12 37 20 11 8 20 17 26 26 6 9 12 18 17 29 4 11 7 20 9 28 2 9 4 17 5 26 0 1 0 1 1 2 1 1 1 1 2 1l70 0 0-121 95 0 0-72-96 0 0-148c0-6 1-11 2-16 2-5 4-10 7-15 3-5 7-9 14-12 6-3 14-4 23-4 15 0 28 3 38 8z"/>
<glyph glyph-name="tumblr-square" unicode="&#57401;" d="M361 95l-18 52c-8-4-18-6-29-6-7-1-13 0-18 3-5 2-8 5-11 9-2 3-4 7-5 11-1 4-1 8-1 13l0 113 73 0 0 56-73 0 0 93-54 0c-1 0-2-1-2-3-1-8-3-17-5-25-3-8-6-17-11-27-5-10-13-19-22-27-10-8-21-15-34-20l0-47 37 0 0-119c0-11 2-22 6-33 4-11 10-22 19-32 8-10 20-18 34-24 15-6 32-9 51-9 13 0 26 3 39 7 13 5 21 10 24 15z m114 298l0-274c0-23-8-42-24-58-16-16-35-24-58-24l-274 0c-23 0-42 8-58 24-16 16-24 35-24 58l0 274c0 23 8 42 24 58 16 16 35 24 58 24l274 0c23 0 42-8 58-24 16-16 24-35 24-58z"/>
<glyph glyph-name="twitter" unicode="&#57402;" d="M481 395c-13-18-28-34-46-47 0-3 0-7 0-12 0-25-3-50-11-74-7-25-18-49-33-71-14-23-32-43-52-61-21-17-45-31-74-41-29-11-60-16-92-16-52 0-99 14-142 42 7-1 14-2 22-2 43 0 81 14 115 40-20 0-38 6-54 18-16 12-27 27-33 46 7-1 13-2 18-2 8 0 16 1 24 4-21 4-39 15-53 31-14 17-21 37-21 59l0 1c13-7 27-11 42-11-13 8-23 19-30 32-8 14-11 29-11 44 0 17 4 33 12 47 23-28 51-51 84-68 33-17 69-27 107-29-2 8-3 15-3 22 0 25 9 47 27 65 18 18 40 27 66 27 26 0 49-10 67-29 21 4 40 11 59 22-7-22-21-39-41-51 18 2 35 7 53 14z"/>
<glyph glyph-name="twitter-square" unicode="&#57403;" d="M402 338c-10-5-22-8-34-10 13 8 22 19 26 33-12-7-25-12-38-14-12 12-26 19-44 19-16 0-30-6-42-18-12-12-18-26-18-42 0-6 1-10 2-14-25 1-48 8-69 19-22 11-40 25-55 44-6-10-9-20-9-30 0-22 9-39 26-50-9 0-18 2-28 7l0-1c0-14 5-27 14-38 10-11 21-18 35-20-5-2-10-3-14-3-3 0-6 1-11 1 4-12 11-21 21-29 10-8 22-12 35-12-23-17-47-26-75-26-5 0-10 0-14 1 28-18 59-27 92-27 21 0 41 3 60 10 18 7 34 16 48 27 13 12 25 25 34 39 10 15 17 31 22 47 4 16 7 32 7 48 0 3-1 6-1 8 12 8 22 19 30 31z m73 55l0-274c0-23-8-42-24-58-16-16-35-24-58-24l-274 0c-23 0-42 8-58 24-16 16-24 35-24 58l0 274c0 23 8 42 24 58 16 16 35 24 58 24l274 0c23 0 42-8 58-24 16-16 24-35 24-58z"/>
<glyph glyph-name="vk" unicode="&#57404;" d="M529 363c5-12-9-40-42-84-5-6-11-14-19-24-15-19-23-31-26-37-3-8-2-16 4-23 4-4 11-12 23-24l1 0 0 0 1-1c27-25 45-46 54-63 1-1 2-2 2-4 1-1 2-4 2-7 1-4 1-7 0-10-1-3-3-5-7-8-4-2-10-3-17-3l-73-2c-5-1-10 0-16 2-6 2-11 4-15 6l-6 4c-5 4-12 10-20 18-7 8-14 15-19 22-6 7-11 12-18 17-6 4-11 6-16 4 0 0-1-1-2-1-1 0-3-2-5-4-2-2-4-5-6-9-2-3-3-8-5-14-1-7-2-14-2-23 0-2 0-5-1-7 0-3-1-5-2-6l-1-1c-3-4-8-6-15-6l-33 0c-14-1-27 0-42 4-14 4-27 9-37 15-11 7-21 13-30 19-9 7-15 12-20 17l-7 7c-2 1-5 4-8 8-3 4-10 13-20 26-11 14-21 28-31 43-9 16-21 36-35 61-13 25-25 50-37 77-1 3-2 6-2 8 0 2 1 4 1 5l1 1c3 4 9 6 17 6l78 0c2 0 4-1 7-2 2 0 3-1 4-2l2-1c3-2 5-5 6-9 4-10 9-19 14-30 5-10 8-18 11-23l5-8c5-12 11-21 16-30 5-8 10-15 14-19 4-5 8-9 12-11 3-3 7-4 9-4 3 0 6 0 8 1 0 0 1 1 1 1 1 1 2 3 4 7 2 3 3 8 4 13 1 6 1 13 2 23 1 10 1 22 0 36 0 8-1 15-2 21-1 6-3 11-4 13l-2 3c-5 7-13 11-24 13-3 0-2 2 1 7 4 3 7 6 11 8 10 5 33 7 68 7 16 0 29-1 39-4 4-1 7-2 10-4 2-1 4-3 5-6 2-3 3-6 3-10 1-3 1-7 1-13 0-5 0-10 0-15 0-5 0-12-1-20 0-9 0-17 0-24 0-2 0-6 0-12 0-6-1-10 0-14 0-3 0-7 1-11 0-5 1-8 3-11 1-3 4-6 6-7 2-1 3-1 5-2 2 0 4 1 8 4 3 2 6 5 10 9 4 5 9 11 15 20 6 8 13 18 20 30 11 20 21 42 30 65 1 1 2 3 3 5 1 1 2 2 3 3l1 0 2 1 4 1 5 0 83 1c7 1 13 0 18-1 5-1 8-3 9-5z"/>
<glyph glyph-name="vimeo" unicode="&#57405;" d="M488 364c-2-45-33-107-95-186-63-82-117-123-160-123-27 0-50 25-69 75-8 30-21 76-37 138-14 50-29 75-45 75-4 0-16-8-37-22l-22 28c5 4 15 13 31 27 16 15 29 26 37 33 30 27 53 41 69 42 18 2 33-3 44-16 11-12 19-31 23-58 9-55 15-90 19-106 10-48 22-72 34-72 10 0 25 16 44 46 20 31 30 55 31 71 3 26-7 39-31 39-11 0-22-2-34-7 23 75 66 111 131 109 48-1 70-32 67-93z"/>
<glyph glyph-name="vimeo-square" unicode="&#57406;" d="M406 330c2 41-14 62-46 63-44 2-74-23-89-74 8 3 16 5 23 5 16 0 23-9 21-27-1-11-8-27-21-48-13-21-23-32-30-32-8 0-16 17-23 49-3 10-7 34-13 73-6 36-21 52-46 50-11-1-27-11-47-28l-46-42 15-19c14 10 22 15 25 15 10 0 21-17 30-51 3-10 7-26 13-47 6-21 10-37 13-47 13-34 28-51 47-51 30 0 66 28 109 84 42 54 64 96 65 127z m69 63l0-274c0-23-8-42-24-58-16-16-35-24-58-24l-274 0c-23 0-42 8-58 24-16 16-24 35-24 58l0 274c0 23 8 42 24 58 16 16 35 24 58 24l274 0c23 0 42-8 58-24 16-16 24-35 24-58z"/>
<glyph glyph-name="user" unicode="&#57407;" d="M457 111c0-23-7-41-21-55-14-13-32-19-55-19l-250 0c-23 0-41 6-55 19-14 14-21 32-21 55 0 10 0 20 1 29 1 10 2 20 4 31 2 11 4 22 7 31 3 10 8 19 13 28 5 9 11 17 17 23 7 7 15 12 25 16 9 3 20 5 32 5 1 0 5-2 12-6 6-4 13-9 21-14 8-5 18-9 31-13 13-4 25-6 38-6 13 0 25 2 38 6 13 4 23 8 31 13 8 5 15 10 21 14 7 4 11 6 12 6 12 0 23-2 32-5 10-4 18-9 25-16 6-6 12-14 17-23 5-9 10-18 13-28 3-9 5-20 7-31 2-11 3-21 4-31 1-9 1-19 1-29z m-91 255c0-31-11-56-32-78-22-21-48-32-78-32-30 0-56 11-78 32-21 22-32 47-32 78 0 30 11 56 32 77 22 22 48 32 78 32 30 0 56-10 78-32 21-21 32-47 32-77z"/>
<glyph glyph-name="whatsapp" unicode="&#57408;" d="M318 234c2 0 12-4 28-13 16-8 24-13 25-15 1-1 1-2 1-4 0-7-2-14-5-22-3-7-10-14-20-19-11-5-20-7-29-7-11 0-29 6-55 17-18 9-34 20-48 34-14 14-28 32-42 53-14 20-21 39-21 55l0 3c1 17 8 32 21 45 5 4 10 6 15 6 1 0 3 0 5 0 3-1 5-1 6-1 3 0 6 0 7-2 2-1 3-3 5-7 1-4 5-13 9-26 5-13 7-20 7-21 0-4-3-9-9-16-7-7-10-12-10-14 0-1 0-2 1-4 7-14 16-27 29-39 11-10 25-20 43-29 3-1 5-2 7-2 3 0 8 5 15 14 8 9 13 14 15 14z m-58-152c24 0 47 5 70 15 22 9 41 22 57 38 16 16 29 35 38 57 10 22 14 46 14 70 0 24-4 47-14 69-9 22-22 42-38 58-16 16-35 28-57 38-23 9-46 14-70 14-24 0-47-5-70-14-22-10-41-22-57-38-16-16-29-36-38-58-10-22-14-45-14-69 0-39 11-74 34-105l-23-67 69 22c31-20 63-30 99-30z m0 395c29 0 57-6 84-17 26-11 49-27 68-46 20-19 35-42 46-69 12-26 17-54 17-83 0-29-5-57-17-84-11-26-26-49-46-69-19-19-42-34-68-46-27-11-55-17-84-17-37 0-72 9-104 27l-119-38 38 116c-20 33-30 71-30 111 0 29 5 57 17 83 11 27 26 50 46 69 19 19 42 35 68 46 27 11 55 17 84 17z"/>
<glyph glyph-name="youtube-play" unicode="&#57409;" d="M366 256c0 7-3 12-9 15l-146 92c-6 4-12 4-19 0-6-3-9-8-9-16l0-182c0-8 3-13 9-16 3-2 6-3 9-3 4 0 7 1 10 3l146 92c6 3 9 8 9 15z m146 0c0-18 0-33 0-43 0-10-1-23-3-39-1-16-3-30-6-42-3-14-10-26-20-35-10-10-22-15-35-17-43-4-106-7-192-7-86 0-149 3-192 7-13 2-25 7-35 17-10 9-17 21-20 35-3 12-5 26-6 42-2 16-3 29-3 39 0 10 0 25 0 43 0 18 0 33 0 43 0 10 1 23 3 39 1 16 3 30 6 42 3 14 10 26 20 35 10 10 22 15 35 17 43 4 106 7 192 7 86 0 149-3 192-7 13-2 25-7 35-17 10-9 17-21 20-35 3-12 5-26 6-42 2-16 3-29 3-39 0-10 0-25 0-43z"/>
<glyph glyph-name="youtube-square" unicode="&#57410;" d="M299 140l0 45c0 9-3 14-8 14-3 0-7-2-10-5l0-64c3-3 7-4 10-4 5 0 8 4 8 14z m53 35l19 0 0 9c0 10-4 15-10 15-6 0-9-5-9-15z m-163 76l0-20-23 0 0-121-21 0 0 121-23 0 0 20z m57-36l0-105-19 0 0 11c-8-8-15-13-22-13-6 0-10 3-12 8-1 3-2 8-2 16l0 83 19 0 0-78c0-4 0-7 1-7 0-3 1-4 4-4 4 0 8 3 12 9l0 80z m72-32l0-42c0-10-1-17-2-21-2-8-7-12-15-12-7 0-13 4-20 12l0-10-19 0 0 141 19 0 0-46c7 7 13 11 20 11 8 0 13-4 15-12 1-4 2-11 2-21z m72-37l0-3c0-5 0-9-1-12 0-4-2-8-4-11-5-8-13-12-23-12-10 0-18 4-23 11-4 5-6 13-6 25l0 37c0 11 2 19 6 24 5 7 13 11 22 11 10 0 18-4 23-11 4-5 6-13 6-24l0-22-38 0 0-19c0-9 3-14 9-14 5 0 8 2 9 7 0 0 0 1 0 2 0 1 0 3 0 5l0 6z m-129 235l0-44c0-10-3-15-9-15-6 0-9 5-9 15l0 44c0 10 3 15 9 15 6 0 9-5 9-15z m152-203c0 33-2 58-5 74-2 8-6 15-13 21-6 6-13 9-21 10-26 3-65 4-118 4-52 0-92-1-117-4-9-1-16-4-22-10-6-6-11-13-12-21-4-17-6-41-6-74 0-34 2-59 6-75 1-8 6-15 12-20 6-6 13-9 21-10 26-3 66-5 118-5 52 0 92 2 118 5 8 1 15 4 21 10 6 5 11 12 12 20 4 16 6 41 6 75z m-216 186l26 84-21 0-15-55-15 55-22 0 7-19 6-20c7-20 11-35 13-45l0-58 21 0z m83-23l0 37c0 11-2 19-6 25-6 7-13 10-22 10-10 0-17-3-23-10-4-6-6-14-6-25l0-37c0-11 2-20 6-25 6-8 13-11 23-11 9 0 16 3 22 11 4 5 6 13 6 25z m52-35l19 0 0 106-19 0 0-81c-4-6-8-9-12-9-3 0-5 2-5 5 0 0 0 3 0 7l0 78-19 0 0-84c0-7 0-12 1-15 3-6 7-8 13-8 7 0 14 4 22 13z m143 87l0-274c0-23-8-42-24-58-16-16-35-24-58-24l-274 0c-23 0-42 8-58 24-16 16-24 35-24 58l0 274c0 23 8 42 24 58 16 16 35 24 58 24l274 0c23 0 42-8 58-24 16-16 24-35 24-58z"/>
<glyph glyph-name="youtube" unicode="&#57411;" d="M314 157l0-61c0-12-4-19-11-19-5 0-9 2-13 6l0 86c4 5 8 7 13 7 7 0 11-7 11-19z m97-1l0-13-26 0 0 13c0 13 4 20 13 20 8 0 13-7 13-20z m-276 63l30 0 0 26-89 0 0-26 30 0 0-163 29 0z m82-163l25 0 0 141-25 0 0-108c-6-8-11-12-16-12-4 0-6 2-6 6-1 1-1 4-1 10l0 104-25 0 0-112c0-9 1-16 2-20 2-7 8-11 17-11 9 0 19 6 29 17z m122 42l0 57c0 13 0 23-2 28-3 11-10 16-20 16-10 0-19-5-27-16l0 62-25 0 0-189 25 0 0 14c9-11 17-16 27-16 10 0 17 5 20 16 2 5 2 14 2 28z m97 3l0 4-26 0c0-10 0-16-1-18-1-6-5-10-11-10-9 0-13 7-13 20l0 25 51 0 0 29c0 15-3 26-8 33-7 10-17 15-30 15-13 0-23-5-31-15-5-7-8-18-8-33l0-49c0-15 3-26 9-33 7-10 17-15 31-15 13 0 24 5 30 15 4 5 6 10 6 16 1 1 1 7 1 16z m-174 261l0 60c0 13-4 20-12 20-8 0-12-7-12-20l0-60c0-13 4-20 12-20 8 0 12 7 12 20z m206-215c0-44-3-77-8-100-2-11-8-20-16-28-9-7-18-12-29-13-35-4-88-6-159-6-71 0-124 2-159 6-11 1-20 6-29 13-8 8-14 17-16 28-5 22-8 55-8 100 0 45 3 78 8 100 2 12 8 21 16 29 9 7 18 12 30 13 35 4 87 6 158 6 71 0 124-2 159-6 11-1 20-6 29-13 8-8 14-17 16-29 5-21 8-54 8-100z m-285 365l29 0-35-114 0-77-28 0 0 77c-3 14-9 34-18 61-7 19-13 37-18 53l30 0 20-75z m105-95l0-50c0-16-2-27-8-34-7-10-17-14-30-14-13 0-23 4-30 14-5 7-8 19-8 34l0 50c0 15 3 26 8 33 7 10 17 15 30 15 13 0 23-5 30-15 6-7 8-18 8-33z m96 46l0-142-26 0 0 15c-10-12-20-17-29-17-9 0-15 3-17 10-2 5-3 12-3 22l0 112 26 0 0-105c0-6 1-9 1-10 0-4 2-6 6-6 5 0 10 4 16 12l0 109z"/>
<glyph glyph-name="wrench" unicode="&#57412;" d="M128 91c0 5-2 10-5 13-4 4-8 6-13 6-5 0-10-2-13-6-4-3-6-8-6-13 0-5 2-9 6-12 3-4 8-6 13-6 5 0 9 2 13 6 3 3 5 7 5 12z m184 120l-195-194c-7-7-15-11-26-11-9 0-18 4-26 11l-30 30c-7 7-11 16-11 26 0 10 4 19 11 26l195 195c7-19 18-35 32-50 15-14 31-25 50-33z m181 125c0-8-2-18-6-31-9-25-25-46-47-62-23-16-47-24-74-24-36 0-66 13-91 38-25 25-37 55-37 90 0 36 12 66 37 91 25 25 55 37 91 37 11 0 22-1 34-4 13-3 23-8 31-14 3-2 5-4 5-8 0-3-2-5-5-8l-84-48 0-64 56-30c1 0 8 5 22 13 14 9 27 17 39 24 12 6 18 10 20 10 3 0 5-1 7-3 1-2 2-4 2-7z"/>
<glyph glyph-name="video-camera" unicode="&#57413;" d="M512 411l0-310c0-8-4-14-11-17-3-1-5-2-7-2-5 0-10 2-13 6l-115 115 0-48c0-22-8-42-24-58-17-16-36-24-59-24l-201 0c-22 0-42 8-58 24-16 16-24 36-24 58l0 202c0 22 8 42 24 58 16 16 36 24 58 24l201 0c23 0 42-8 59-24 16-16 24-36 24-58l0-48 115 115c3 4 8 6 13 6 2 0 4-1 7-2 7-3 11-9 11-17z"/>
<glyph glyph-name="times-circle" unicode="&#57414;" d="M365 191c0 5-2 10-6 13l-51 52 51 52c4 3 6 8 6 13 0 5-2 9-6 13l-25 25c-4 4-8 6-13 6-5 0-10-2-13-6l-52-51-52 51c-3 4-8 6-13 6-5 0-9-2-13-6l-25-25c-4-4-6-8-6-13 0-5 2-10 6-13l51-52-51-52c-4-3-6-8-6-13 0-5 2-9 6-13l25-25c4-4 8-6 13-6 5 0 10 2 13 6l52 51 52-51c3-4 8-6 13-6 5 0 9 2 13 6l25 25c4 4 6 8 6 13z m110 65c0-40-9-77-29-110-20-34-46-60-80-80-33-20-70-29-110-29-40 0-77 9-110 29-34 20-60 46-80 80-20 33-29 70-29 110 0 40 9 77 29 110 20 34 46 60 80 80 33 20 70 29 110 29 40 0 77-9 110-29 34-20 60-46 80-80 20-33 29-70 29-110z"/>
<glyph glyph-name="sign-in" unicode="&#57415;" d="M375 256c0-5-2-9-6-13l-155-155c-4-4-8-6-13-6-5 0-9 2-13 6-3 3-5 8-5 13l0 82-128 0c-5 0-9 2-13 5-4 4-5 8-5 13l0 110c0 5 1 9 5 13 4 3 8 5 13 5l128 0 0 82c0 5 2 10 5 13 4 4 8 6 13 6 5 0 9-2 13-6l155-155c4-4 6-8 6-13z m100 101l0-202c0-22-8-42-24-58-16-16-35-24-58-24l-91 0c-3 0-5 1-7 3-2 2-2 4-2 6 0 1-1 3-1 6 0 3 0 6 0 8 0 2 1 4 1 6 0 3 1 5 3 6 1 1 3 2 6 2l91 0c13 0 23 4 32 13 9 9 14 20 14 32l0 202c0 12-5 23-14 32-9 9-19 13-32 13l-89 0-3 1-4 0-2 2-2 3 0 3c0 1-1 3-1 6 0 3 0 6 0 8 0 2 1 4 1 6 0 3 1 5 3 6 1 1 3 2 6 2l91 0c23 0 42-8 58-24 16-16 24-36 24-58z"/>
<glyph glyph-name="sign-out" unicode="&#57416;" d="M201 101c0-1 0-3 0-6 1-3 1-6 1-8-1-2-1-4-1-6-1-3-2-5-3-6-2-1-4-2-6-2l-91 0c-23 0-42 8-59 24-16 16-24 36-24 58l0 202c0 22 8 42 24 58 17 16 36 24 59 24l91 0c2 0 5-1 6-3 2-2 3-4 3-6 0-1 0-3 0-6 1-3 1-6 1-8-1-2-1-4-1-6-1-3-2-5-3-6-2-1-4-2-6-2l-91 0c-13 0-24-4-33-13-9-9-13-20-13-32l0-202c0-12 4-23 13-32 9-9 20-13 33-13l89 0 3-1 3 0 3-2 2-3z m265 155c0-5-2-9-5-13l-156-155c-3-4-7-6-12-6-5 0-10 2-13 6-4 3-6 8-6 13l0 82-128 0c-5 0-9 2-13 5-3 4-5 8-5 13l0 110c0 5 2 9 5 13 4 3 8 5 13 5l128 0 0 82c0 5 2 10 6 13 3 4 8 6 13 6 5 0 9-2 12-6l156-155c3-4 5-8 5-13z"/>
<glyph glyph-name="shopping-cart-1" unicode="&#57417;" d="M201 73c0-10-3-18-11-26-7-7-16-10-25-10-10 0-19 3-26 10-7 8-11 16-11 26 0 10 4 19 11 26 7 7 16 11 26 11 9 0 18-4 25-11 8-7 11-16 11-26z m256 0c0-10-3-18-11-26-7-7-16-10-25-10-10 0-19 3-26 10-7 8-11 16-11 26 0 10 4 19 11 26 7 7 16 11 26 11 9 0 18-4 25-11 8-7 11-16 11-26z m37 311l0-146c0-5-2-9-5-12-3-4-7-6-12-7l-298-34c3-12 4-19 4-20 0-3-2-10-7-19l263 0c5 0 9-2 13-5 3-4 5-8 5-13 0-5-2-9-5-13-4-3-8-5-13-5l-293 0c-5 0-9 2-13 5-3 4-5 8-5 13 0 2 1 5 2 9 2 4 3 7 5 10 1 3 3 7 6 12 3 4 4 7 4 8l-50 235-58 0c-5 0-10 2-13 6-4 3-6 8-6 13 0 5 2 9 6 12 3 4 8 6 13 6l73 0c3 0 5-1 8-2 2-1 4-3 5-4 2-2 3-4 4-7 1-3 2-6 2-8 1-2 1-5 2-8 1-4 1-6 1-8l343 0c5 0 10-2 13-5 4-4 6-8 6-13z"/>
<glyph glyph-name="git" unicode="&#57418;" d="M170 79c0 19-16 29-47 29-30 0-45-10-45-30 0-19 16-29 49-29 29 0 43 10 43 30z m-17 216c0 12-3 21-8 29-6 8-15 12-26 12-23 0-35-14-35-41 0-26 12-39 35-39 23 0 34 13 34 39z m77 93l0-58c-7-2-14-4-23-6 3-8 5-16 5-24 0-24-7-45-21-62-14-17-33-28-56-32-8-2-13-4-17-8-4-4-6-9-6-17 0-5 2-10 7-14 4-4 10-7 16-9 7-3 15-5 23-7 8-2 16-4 24-7 8-3 16-6 23-11 6-4 12-10 16-18 5-8 7-17 7-28 0-58-35-87-104-87-13 0-26 1-37 4-12 2-23 6-33 11-11 6-19 14-25 24-6 10-10 22-10 36 0 32 18 53 52 64l0 2c-12 7-19 19-19 36 0 20 6 33 18 39l0 1c-13 4-25 15-34 31-9 16-13 32-13 47 0 27 9 49 27 66 18 18 40 27 67 27 18 0 35-5 51-14 18 0 39 5 62 14z m91-252l-64 0c1 9 2 21 2 38l0 174c0 18-1 30-2 37l64 0c-1-6-1-18-1-36l0-175c0-17 0-29 1-38z m172 63l0-56c-14-7-31-11-50-11-12 0-22 2-31 6-8 4-15 9-20 14-4 6-8 13-11 23-3 9-5 17-5 26-1 8-1 18-1 29l0 101 0 0 0 1c-1 0-3 0-5 0-3 0-4 0-5 0-4 0-10 0-17-1l0 54 27 0 0 22c0 10 0 18-2 25l65 0c-1-8-1-24-1-47l48 0 0-54c-2 0-7 0-12 0-5 1-9 1-12 1l-24 0 0-105c0-25 8-37 24-37 12 0 22 3 32 9z m-165 271c0-11-4-21-11-29-8-8-17-12-28-12-11 0-20 4-28 12-7 8-11 18-11 29 0 11 4 21 11 29 8 9 17 13 28 13 11 0 21-4 28-13 7-8 11-18 11-29z"/>
<glyph glyph-name="git-square" unicode="&#57419;" d="M203 138c0-12-9-19-27-19-20 0-30 6-30 18 0 13 9 19 28 19 19 0 29-6 29-18z m-10 133c0-16-7-24-22-24-14 0-22 8-22 24 0 17 8 26 22 26 7 0 13-3 16-7 4-5 6-11 6-19z m47 22l0 36c-15-6-28-9-39-9-9 6-20 9-31 9-16 0-30-6-41-17-12-11-17-24-17-41 0-9 3-19 8-29 6-10 13-16 21-19l0-1c-7-3-11-11-11-24 0-10 4-17 12-22l0-1c-22-7-32-20-32-40 0-8 2-16 5-22 4-6 9-11 16-15 6-3 13-5 20-7 8-1 15-2 24-2 42 0 64 18 64 54 0 12-5 22-14 28-9 6-21 10-36 13-5 1-10 3-15 6-5 3-7 7-7 11 0 9 5 13 14 15 15 3 26 10 35 20 9 10 13 23 13 38 0 5-1 10-3 15 7 2 12 3 14 4z m17-120l39 0c0 5-1 13-1 24l0 110c0 9 1 15 1 20l-39 0c0-5 1-11 1-20l0-112c0-10-1-17-1-22z m145 5l0 34c-5-4-12-6-19-6-10 0-15 8-15 24l0 64 15 0c1 0 4 0 7 0 3 0 6-1 8-1l0 34-30 0c0 15 0 25 1 29l-40 0c0-5 1-10 1-16l0-13-17 0 0-34c6 1 10 1 10 1 1 0 2 0 3 0 2 0 3 0 4 0l0-1-1 0 0-62c0-7 0-13 1-18 0-5 1-10 3-16 2-6 4-10 7-14 3-3 7-6 13-9 5-2 11-3 18-3 13 0 23 2 31 7z m-101 201c0 7-3 13-7 19-5 5-11 7-17 7-7 0-13-2-18-7-4-5-7-12-7-19 0-6 3-12 7-17 5-5 11-8 18-8 6 0 12 3 17 8 4 5 7 11 7 17z m174 14l0-274c0-23-8-42-24-58-16-16-35-24-58-24l-274 0c-23 0-42 8-58 24-16 16-24 35-24 58l0 274c0 23 8 42 24 58 16 16 35 24 58 24l274 0c23 0 42-8 58-24 16-16 24-35 24-58z"/>
<glyph glyph-name="github-alt" unicode="&#57420;" d="M201 165c0-8-1-16-3-24-3-8-7-15-13-22-6-6-12-9-20-9-8 0-15 3-21 9-6 7-10 14-12 22-3 8-4 16-4 24 0 7 1 15 4 23 2 8 6 15 12 22 6 6 13 9 21 9 8 0 14-3 20-9 6-7 10-14 13-22 2-8 3-16 3-23z m183 0c0-8-1-16-4-24-2-8-6-15-12-22-6-6-13-9-21-9-8 0-14 3-20 9-6 7-10 14-13 22-2 8-3 16-3 24 0 7 1 15 3 23 3 8 7 15 13 22 6 6 12 9 20 9 8 0 15-3 21-9 6-7 10-14 12-22 3-8 4-16 4-23z m46 0c0 22-7 42-20 58-13 16-31 24-53 24-8 0-27-2-56-6-14-2-29-3-45-3-16 0-31 1-45 3-29 4-47 6-56 6-22 0-40-8-53-24-13-16-20-36-20-58 0-17 3-32 9-44 7-13 14-23 24-30 9-7 21-13 34-17 14-4 28-7 40-8 13-2 27-2 43-2l48 0c16 0 30 0 43 2 12 1 26 4 40 8 13 4 25 10 34 17 10 7 17 17 24 30 6 12 9 27 9 44z m64 50c0-40-6-71-18-95-7-14-17-27-30-38-13-10-26-19-40-24-14-6-30-11-49-14-18-3-34-5-49-6-14-1-30-1-47-1-15 0-29 0-41 0-12 1-26 2-42 4-16 2-31 5-44 9-13 3-26 8-39 14-13 6-24 14-34 23-11 10-19 21-25 33-12 24-18 55-18 95 0 45 13 83 39 113-5 16-8 32-8 49 0 22 5 42 15 62 21 0 39-4 54-11 16-8 34-20 54-36 28 7 58 10 89 10 28 0 54-3 80-9 20 16 37 27 53 35 16 7 34 11 54 11 10-20 15-40 15-62 0-17-3-33-8-48 26-31 39-69 39-114z"/>
<glyph glyph-name="info-1" unicode="&#57421;" d="M347 128l0-37c0-5-1-9-5-12-4-4-8-6-13-6l-146 0c-5 0-9 2-13 6-4 3-5 7-5 12l0 37c0 5 1 9 5 13 4 3 8 5 13 5l18 0 0 110-18 0c-5 0-9 2-13 5-4 4-5 8-5 13l0 37c0 5 1 9 5 13 4 3 8 5 13 5l110 0c5 0 9-2 12-5 4-4 6-8 6-13l0-165 18 0c5 0 9-2 13-5 4-4 5-8 5-13z m-36 329l0-55c0-5-2-9-6-13-3-3-7-5-12-5l-74 0c-5 0-9 2-12 5-4 4-6 8-6 13l0 55c0 5 2 9 6 13 3 4 7 5 12 5l74 0c5 0 9-1 12-5 4-4 6-8 6-13z"/>
<glyph glyph-name="info-circle" unicode="&#57422;" d="M329 119l0 46c0 2-1 4-2 6-2 2-4 3-7 3l-27 0 0 146c0 3-1 5-3 7-2 1-4 2-7 2l-91 0c-3 0-5-1-7-2-1-2-2-4-2-7l0-46c0-2 1-5 2-6 2-2 4-3 7-3l27 0 0-91-27 0c-3 0-5-1-7-3-1-2-2-4-2-6l0-46c0-3 1-5 2-7 2-1 4-2 7-2l128 0c3 0 5 1 7 2 1 2 2 4 2 7z m-36 256l0 46c0 2-1 4-3 6-2 2-4 3-7 3l-54 0c-3 0-5-1-7-3-2-2-3-4-3-6l0-46c0-3 1-5 3-7 2-1 4-2 7-2l54 0c3 0 5 1 7 2 2 2 3 4 3 7z m182-119c0-40-9-77-29-110-20-34-46-60-80-80-33-20-70-29-110-29-40 0-77 9-110 29-34 20-60 46-80 80-20 33-29 70-29 110 0 40 9 77 29 110 20 34 46 60 80 80 33 20 70 29 110 29 40 0 77-9 110-29 34-20 60-46 80-80 20-33 29-70 29-110z"/>
<glyph glyph-name="behance" unicode="&#57423;" d="M491 415l-146 0 0-35 146 0z m-72-122c-17 0-31-5-41-15-11-10-17-23-18-40l117 0c-4 37-23 55-58 55z m5-167c12 0 24 3 35 9 11 7 18 15 22 25l63 0c-19-58-60-87-122-87-41 0-73 12-98 37-24 25-36 58-36 99 0 40 13 73 38 99 24 26 56 39 96 39 26 0 49-6 68-19 20-13 35-30 44-51 10-21 15-45 15-71 0-3-1-8-1-13l-188 0c0-22 5-38 16-49 11-12 27-18 48-18z m-381 15l84 0c39 0 59 15 59 47 0 35-19 52-57 52l-86 0z m0 153l80 0c15 0 26 3 35 10 9 7 13 18 13 33 0 27-18 41-54 41l-74 0z m-80 145l170 0c17 0 31-1 44-4 13-2 25-7 37-13 11-7 19-16 25-28 6-12 9-26 9-44 0-34-16-59-49-75 22-6 38-17 49-33 11-16 17-35 17-58 0-14-2-27-7-39-5-12-11-22-19-30-8-8-17-14-28-20-11-5-23-9-35-12-12-2-25-4-38-4l-175 0z"/>
<glyph glyph-name="behance-square" unicode="&#57424;" d="M393 475c23 0 42-8 58-24 16-16 24-35 24-58l0-274c0-23-8-42-24-58-16-16-35-24-58-24l-274 0c-23 0-42 8-58 24-16 16-24 35-24 58l0 274c0 23 8 42 24 58 16 16 35 24 58 24z m-214-104l-106 0 0-225 109 0c23 0 41 5 57 16 15 11 22 27 22 49 0 30-13 49-40 57 20 10 30 26 30 47 0 11-2 20-5 27-4 8-10 14-17 18-7 4-14 7-22 8-8 2-17 3-28 3z m-6-91l-50 0 0 52 46 0c23 0 34-8 34-25 0-18-10-27-30-27z m2-96l-52 0 0 62 54 0c23 0 35-11 35-32 0-20-12-30-37-30z m186-9c-13 0-23 3-30 11-6 7-10 17-10 30l118 0c0 2 0 5 0 9 0 25-7 46-21 63-15 17-34 25-59 25-24 0-44-8-60-24-15-17-23-37-23-62 0-26 8-47 23-62 15-16 35-24 60-24 39 0 65 19 77 55l-40 0c-2-6-6-12-13-15-7-4-14-6-22-6z m-3 104c22 0 34-11 36-34l-73 0c1 10 5 19 11 25 7 6 16 9 26 9z m-46 76l91 0 0-22-91 0z"/>
<glyph glyph-name="cog" unicode="&#57425;" d="M329 256c0 20-7 37-21 52-15 14-32 21-52 21-20 0-37-7-52-21-14-15-21-32-21-52 0-20 7-37 21-52 15-14 32-21 52-21 20 0 37 7 52 21 14 15 21 32 21 52z m146 31l0-63c0-3 0-5-2-7-1-2-3-3-6-4l-52-8c-4-10-8-19-12-26 7-9 17-22 31-39 2-2 3-5 3-7 0-3-1-5-3-7-5-7-14-17-28-31-14-13-23-20-27-20-2 0-5 1-7 3l-40 31c-8-5-17-8-26-11-3-26-6-44-8-53-1-6-5-8-10-8l-64 0c-2 0-5 0-7 2-2 2-3 4-3 6l-8 53c-9 3-18 6-26 10l-40-30c-2-2-4-3-7-3-3 0-5 1-7 3-24 22-40 38-47 48-2 2-2 4-2 7 0 2 0 4 2 6 3 4 8 11 14 19 7 9 12 16 16 21-5 9-9 19-12 28l-52 8c-3 0-5 1-6 3-2 2-2 4-2 7l0 63c0 3 0 5 2 7 1 2 3 3 5 4l53 8c3 8 7 17 12 26-8 11-18 24-31 39-2 3-3 5-3 7 0 2 1 4 3 7 5 7 14 17 28 30 14 14 23 21 27 21 2 0 5-1 7-3l40-31c8 5 17 8 26 11 3 26 6 44 8 53 1 6 5 8 10 8l64 0c2 0 5 0 7-2 2-2 3-4 3-6l8-53c9-3 18-6 26-10l40 30c2 2 4 3 7 3 3 0 5-1 7-3 25-23 41-39 47-49 2-1 2-3 2-6 0-2 0-4-2-6-3-4-8-11-14-19-7-9-12-16-16-21 5-9 9-18 12-28l52-8c3 0 5-1 6-3 2-2 2-4 2-7z"/>
<glyph glyph-name="cogs" unicode="&#57426;" d="M238 256c0 20-7 37-22 52-14 14-31 21-51 21-21 0-38-7-52-21-14-15-22-32-22-52 0-20 8-37 22-52 14-14 31-21 52-21 20 0 37 7 51 21 15 15 22 32 22 52z m219-146c0 10-3 18-11 25-7 8-16 11-25 11-10 0-19-3-26-11-7-7-11-15-11-25 0-10 4-19 11-26 7-7 15-11 26-11 10 0 18 4 25 11 8 7 11 16 11 26z m0 292c0 10-3 19-11 26-7 7-16 11-25 11-10 0-19-4-26-11-7-7-11-16-11-26 0-10 4-18 11-26 7-7 15-10 26-10 10 0 18 3 25 10 8 8 11 16 11 26z m-110-120l0-53c0-2 0-4-2-5-1-2-2-3-4-3l-44-7c-3-7-6-14-10-22 7-9 15-20 26-33 1-2 2-4 2-6 0-2-1-4-2-5-4-6-12-14-23-26-12-11-19-17-23-17-2 0-4 1-6 2l-33 26c-7-3-14-6-22-9-2-20-4-35-6-44-2-5-4-7-9-7l-53 0c-2 0-4 1-6 2-1 2-2 3-3 5l-6 44c-7 2-14 5-22 9l-33-26c-2-1-4-2-6-2-2 0-4 1-6 3-27 25-41 40-41 45 0 2 1 4 2 6 2 3 6 8 12 15 5 7 10 13 13 17-4 9-8 17-10 24l-43 7c-2 0-4 1-5 2-2 2-2 4-2 6l0 53c0 2 0 4 2 5 1 2 3 3 4 3l45 7c2 7 5 14 9 22-7 9-15 20-26 33-1 2-2 4-2 6 0 2 1 4 2 5 4 6 12 14 23 26 12 11 19 17 23 17 2 0 4-1 6-2l33-26c6 3 14 6 22 9 2 21 4 35 6 44 2 5 5 7 9 7l53 0c2 0 4-1 6-2 2-2 3-3 3-5l6-44c7-2 14-5 22-9l33 26c2 1 4 2 6 2 2 0 4-1 6-3 28-25 41-40 41-45 0-2 0-4-2-6-2-3-6-8-12-15-5-8-10-13-13-17 5-10 8-17 10-24l44-6c1-1 3-2 4-3 2-2 2-4 2-6z m183-152l0-40c0-3-14-6-42-9-3-5-5-10-9-15 10-22 15-35 15-39 0-1-1-2-1-2-24-14-35-21-36-21-1 0-6 5-13 14-7 9-12 15-15 19-4 0-7 0-8 0-2 0-5 0-9 0-3-4-8-10-15-19-7-9-11-14-13-14 0 0-12 7-35 21-1 0-2 1-2 2 0 4 5 17 15 39-3 5-6 10-9 15-28 3-42 6-42 9l0 40c0 3 14 6 42 9 3 5 6 10 9 14-10 22-15 35-15 40 0 1 1 1 2 2 0 0 4 2 10 6 5 3 11 6 16 9 6 3 9 5 9 5 2 0 6-5 13-13 7-9 12-16 15-20 4 1 7 1 9 1 1 0 4 0 8-1 10 14 19 24 26 32l2 1c1 0 13-7 36-20 0-1 1-1 1-2 0-5-5-18-15-40 3-4 6-9 9-14 28-3 42-6 42-9z m0 292l0-40c0-3-14-6-42-9-3-5-5-10-9-14 10-22 15-35 15-40 0-1-1-1-1-2-24-13-35-20-36-20-1 0-6 4-13 13-7 9-12 16-15 20-4-1-7-1-8-1-2 0-5 0-9 1-3-4-8-11-15-20-7-9-11-13-13-13 0 0-12 7-35 20-1 1-2 1-2 2 0 5 5 18 15 40-3 4-6 9-9 14-28 3-42 6-42 9l0 40c0 3 14 6 42 9 3 6 6 11 9 15-10 22-15 35-15 39 0 1 1 2 2 2 0 1 4 3 10 6 5 4 11 7 16 10 6 3 9 4 9 4 2 0 6-4 13-13 7-9 12-15 15-19 4 0 7 0 9 0 1 0 4 0 8 0 10 13 19 24 26 32l2 0c1 0 13-6 36-20 0 0 1-1 1-2 0-4-5-17-15-39 3-4 6-9 9-15 28-3 42-6 42-9z"/>
<glyph glyph-name="commenting" unicode="&#57427;" d="M183 256c0 10-4 19-11 26-7 7-16 11-26 11-10 0-18-4-26-11-7-7-10-16-10-26 0-10 3-19 10-26 8-7 16-11 26-11 10 0 19 4 26 11 7 7 11 16 11 26z m110 0c0 10-4 19-11 26-7 7-16 11-26 11-10 0-19-4-26-11-7-7-11-16-11-26 0-10 4-19 11-26 7-7 16-11 26-11 10 0 19 4 26 11 7 7 11 16 11 26z m109 0c0 10-3 19-10 26-8 7-16 11-26 11-10 0-19-4-26-11-7-7-11-16-11-26 0-10 4-19 11-26 7-7 16-11 26-11 10 0 18 4 26 11 7 7 10 16 10 26z m110 0c0-33-11-64-34-92-23-28-54-50-93-66-40-17-83-25-129-25-21 0-41 2-60 5-33-33-75-54-125-65-9-2-18-3-24-4-2 0-5 1-6 2-2 1-4 3-4 5-1 3 1 6 6 11 1 1 3 3 6 6 4 3 6 5 8 6 1 2 3 4 6 8 3 3 6 6 7 9 2 2 4 6 6 10 2 5 4 9 6 14 1 5 2 10 4 16 1 7 2 14 3 21-27 17-49 38-65 62-16 24-24 50-24 77 0 33 11 64 34 92 23 28 54 50 93 66 40 17 83 25 129 25 46 0 89-8 129-25 39-16 70-38 93-66 23-28 34-59 34-92z"/>
<glyph glyph-name="commenting-o" unicode="&#57428;" d="M183 256c0-10-4-19-11-26-7-7-16-11-26-11-10 0-18 4-26 11-7 7-10 16-10 26 0 10 3 19 10 26 8 7 16 11 26 11 10 0 19-4 26-11 7-7 11-16 11-26z m110 0c0-10-4-19-11-26-7-7-16-11-26-11-10 0-19 4-26 11-7 7-11 16-11 26 0 10 4 19 11 26 7 7 16 11 26 11 10 0 19-4 26-11 7-7 11-16 11-26z m109 0c0-10-3-19-10-26-8-7-16-11-26-11-10 0-19 4-26 11-7 7-11 16-11 26 0 10 4 19 11 26 7 7 16 11 26 11 10 0 18-4 26-11 7-7 10-16 10-26z m-146 146c-39 0-75-6-109-20-34-13-61-31-81-53-19-23-29-47-29-73 0-21 6-42 20-61 14-19 33-36 58-50l24-14-7-28c-5-17-12-34-20-49 29 12 55 28 78 49l13 11 16-2c13-2 25-2 37-2 39 0 75 6 109 20 34 13 61 31 81 53 19 23 29 47 29 73 0 26-10 50-29 73-20 22-47 40-81 53-34 14-70 20-109 20z m256-146c0-33-11-64-34-92-23-28-54-50-93-66-40-17-83-25-129-25-13 0-27 1-41 2-38-33-82-56-132-69-9-2-20-4-32-6l-2 0c-3 0-5 1-8 3-2 2-3 5-4 8l0 0c-1 1-1 2 0 4 0 1 0 2 0 2 0 1 1 2 2 3l1 3 2 2 3 3c1 1 4 5 8 10 5 5 8 8 10 10 2 3 5 6 9 12 4 5 7 10 9 14 3 5 5 10 8 17 3 7 5 14 8 22-30 17-54 38-71 63-17 25-26 51-26 80 0 25 7 48 20 71 14 23 32 42 55 58 23 17 50 30 82 39 31 10 64 15 99 15 35 0 68-5 99-15 32-9 59-22 82-39 23-16 41-35 55-58 13-23 20-46 20-71z"/>
<glyph glyph-name="comments" unicode="&#57429;" d="M402 293c0-27-9-51-27-74-17-22-42-40-73-53-31-13-64-20-101-20-16 0-33 2-50 5-24-17-50-29-80-37-6-1-15-3-24-4l-1 0c-2 0-4 0-6 2-2 2-3 4-3 6 0 1 0 1 0 2 0 1 0 1-1 2 0 0 1 1 1 1l1 2 1 1 1 2 1 1 1 2c1 1 3 3 7 7 3 3 6 6 7 8 2 2 4 5 7 8 2 4 5 8 7 11 2 4 4 8 6 13-24 14-42 31-56 51-14 20-20 41-20 64 0 26 9 51 27 73 17 22 42 40 73 53 31 13 64 20 101 20 36 0 70-7 101-20 31-13 55-31 73-53 18-22 27-47 27-73z m110-74c0-22-7-44-20-64-14-20-32-36-56-50 2-5 4-9 6-13 2-4 4-7 7-11 3-3 5-6 6-8 2-2 4-5 8-8 3-4 5-6 6-8 1 0 1 0 2-1 0-1 1-1 1-1 0-1 1-1 1-2 0 0 1-1 1-1l1-2 0-1 0-2 0-2c0-3-2-5-4-6-1-2-4-3-6-2-9 1-18 2-24 4-30 8-56 20-80 37-17-3-34-5-50-5-52 0-97 13-135 38 11-1 19-1 25-1 31 0 60 4 88 13 29 8 54 20 76 36 24 18 42 38 55 61 12 23 19 47 19 73 0 14-2 29-7 43 25-14 44-30 59-51 14-20 21-42 21-66z"/>
<glyph glyph-name="comments-o" unicode="&#57430;" d="M201 402c-29 0-56-5-82-15-25-9-45-23-60-40-15-17-22-35-22-54 0-16 5-31 15-46 10-14 24-27 42-37l28-16-10-24c6 4 12 7 18 11l12 9 15-3c15-3 30-4 44-4 29 0 57 5 82 15 25 10 45 23 60 40 15 17 23 35 23 55 0 19-8 37-23 54-15 17-35 31-60 40-25 10-53 15-82 15z m0 37c37 0 70-7 101-20 31-13 56-31 73-53 18-22 27-47 27-73 0-27-9-51-27-74-17-22-42-40-73-53-31-13-64-20-101-20-16 0-33 2-50 5-24-17-50-29-80-37-6-1-15-3-24-4l-1 0c-2 0-4 0-6 2-2 2-3 4-3 6 0 1 0 1 0 2 0 1 0 1-1 2 0 0 1 1 1 1l1 2 1 1 1 2 1 1 1 2c1 1 3 3 7 7 3 3 6 6 7 8 2 2 4 5 7 8 2 4 5 8 7 11 2 4 4 8 6 13-24 14-42 31-56 51-14 20-20 41-20 64 0 26 9 51 27 73 17 22 42 40 73 53 31 13 64 20 101 20z m235-334c2-5 4-9 6-13 2-4 4-7 7-11 3-3 5-6 6-8 2-2 4-5 8-8 3-4 5-6 6-8 1 0 1 0 2-1 0-1 1-1 1-1 0-1 1-1 1-2 0 0 1-1 1-1l1-2 0-1 0-2 0-2c0-3-2-5-4-6-1-2-4-3-6-2-9 1-18 2-24 4-30 8-56 20-80 37-17-3-34-5-50-5-52 0-97 13-135 38 11-1 19-1 25-1 31 0 60 4 88 13 29 8 54 20 76 36 24 18 42 38 55 61 12 23 19 47 19 73 0 14-2 29-7 43 25-14 44-30 59-51 14-20 21-42 21-66 0-22-7-44-20-64-14-20-32-36-56-50z"/>
<glyph glyph-name="comment" unicode="&#57431;" d="M512 256c0-33-11-64-34-92-23-28-54-50-93-66-40-17-83-25-129-25-13 0-27 1-41 2-38-33-82-56-132-69-9-2-20-4-32-6-4 0-7 0-9 3-3 2-4 4-5 8l0 0c-1 1-1 2 0 4 0 1 0 2 0 2 0 1 1 2 2 3l1 3 2 2 3 3c1 1 4 5 8 10 5 5 8 8 10 10 2 3 5 6 9 12 4 5 7 10 9 14 3 5 5 10 8 17 3 7 5 14 8 22-30 17-54 38-71 63-17 25-26 51-26 80 0 25 7 48 20 71 14 23 32 42 55 58 23 17 50 30 82 39 31 10 64 15 99 15 46 0 89-8 129-25 39-16 70-38 93-66 23-28 34-59 34-92z"/>
<glyph glyph-name="credit-card" unicode="&#57432;" d="M485 475c12 0 23-4 32-13 9-9 13-20 13-32l0-348c0-12-4-23-13-32-9-9-20-13-32-13l-458 0c-12 0-23 4-32 13-9 9-13 20-13 32l0 348c0 12 4 23 13 32 9 9 20 13 32 13z m-458-36c-2 0-4-1-6-3-2-2-3-4-3-6l0-64 476 0 0 64c0 2-1 4-3 6-2 2-4 3-6 3z m458-366c2 0 4 1 6 3 2 2 3 4 3 6l0 174-476 0 0-174c0-2 1-4 3-6 2-2 4-3 6-3z m-430 37l0 36 73 0 0-36z m110 0l0 36 109 0 0-36z"/>
<glyph glyph-name="envelope" unicode="&#57433;" d="M512 309l0-227c0-12-4-23-13-32-9-9-20-13-33-13l-420 0c-13 0-24 4-33 13-9 9-13 20-13 32l0 227c8-9 18-17 29-25 69-47 116-79 142-98 11-8 20-15 26-19 7-4 16-9 27-14 12-4 22-7 32-7l0 0c10 0 20 3 32 7 11 5 20 10 27 14 6 4 15 11 26 19 33 23 80 56 142 98 11 8 21 16 29 25z m0 84c0-15-5-29-14-43-9-14-21-25-35-35-71-50-116-81-134-93-1-1-6-4-12-9-6-4-11-8-15-11-4-2-9-5-15-9-6-3-11-6-16-8-6-1-10-2-15-2l0 0c-5 0-9 1-15 2-5 2-10 5-16 8-6 4-11 7-15 9-4 3-9 7-15 11-6 5-11 8-12 9-18 12-43 30-75 52-33 23-52 36-59 41-12 8-23 19-33 33-11 14-16 27-16 39 0 15 4 27 12 37 8 10 19 15 34 15l420 0c13 0 23-5 32-14 9-9 14-19 14-32z"/>
<glyph glyph-name="envelope-o" unicode="&#57434;" d="M475 82l0 220c-6-7-12-13-19-19-51-39-92-72-122-97-10-8-18-14-24-19-6-4-14-9-24-14-11-4-21-7-30-7l0 0c-9 0-19 3-30 7-10 5-18 10-24 14-6 5-14 11-24 19-30 25-71 58-122 97-7 6-13 12-19 19l0-220c0-2 0-4 2-6 2-2 4-3 7-3l420 0c3 0 5 1 7 3 2 2 2 4 2 6z m0 301l0 7 0 3-1 4-1 2-3 3-4 0-420 0c-3 0-5-1-7-2-2-2-2-4-2-7 0-32 14-59 42-81 36-29 75-59 114-91 1-1 5-3 10-8 6-5 10-8 13-11 4-2 8-5 13-9 5-3 10-6 14-8 5-1 9-2 13-2l0 0c4 0 8 1 13 2 4 2 9 5 14 8 5 4 9 7 13 9 3 3 7 6 13 11 5 5 9 7 10 8 39 32 78 62 114 91 11 8 20 19 29 33 9 14 13 26 13 38z m37 10l0-311c0-12-4-23-13-32-9-9-20-13-33-13l-420 0c-13 0-24 4-33 13-9 9-13 20-13 32l0 311c0 13 4 23 13 32 9 9 20 14 33 14l420 0c13 0 24-5 33-14 9-9 13-19 13-32z"/>
<glyph glyph-name="external-link" unicode="&#57435;" d="M402 247l0-92c0-22-8-42-24-58-16-16-35-24-58-24l-238 0c-22 0-42 8-58 24-16 16-24 36-24 58l0 238c0 23 8 42 24 58 16 16 36 24 58 24l201 0c3 0 5 0 7-2 2-2 3-4 3-7l0-18c0-3-1-5-3-7-2-1-4-2-7-2l-201 0c-12 0-23-5-32-14-9-9-13-19-13-32l0-238c0-12 4-23 13-32 9-9 20-13 32-13l238 0c13 0 23 4 32 13 9 9 14 20 14 32l0 92c0 3 1 5 2 6 2 2 4 3 7 3l18 0c3 0 5-1 7-3 1-1 2-3 2-6z m110 247l0-147c0-5-2-9-5-12-4-4-8-6-13-6-5 0-10 2-13 6l-50 50-187-186c-2-2-4-3-6-3-3 0-5 1-7 3l-32 32c-2 2-3 4-3 7 0 2 1 4 3 6l186 187-50 50c-4 3-6 8-6 13 0 5 2 9 6 13 3 3 7 5 12 5l147 0c5 0 9-2 13-5 3-4 5-8 5-13z"/>
<glyph glyph-name="eye" unicode="&#57436;" d="M475 238c-29 45-65 78-108 101 11-20 17-42 17-65 0-35-13-65-38-90-25-25-55-38-90-38-35 0-65 13-90 38-25 25-38 55-38 90 0 23 6 45 17 65-43-23-79-56-108-101 25-39 57-70 95-94 38-23 79-34 124-34 45 0 86 11 124 34 38 24 70 55 95 94z m-205 109c0 4-2 7-4 10-3 3-6 4-10 4-24 0-44-8-61-25-17-17-26-38-26-62 0-4 1-7 4-9 3-3 6-4 10-4 4 0 7 1 10 4 2 2 4 5 4 9 0 17 5 31 17 42 12 12 26 18 42 18 4 0 7 1 10 4 2 2 4 6 4 9z m242-109c0-7-2-13-6-20-26-44-62-79-107-105-45-27-93-40-143-40-50 0-98 13-143 40-45 26-81 61-107 105-4 7-6 13-6 20 0 6 2 13 6 19 26 44 62 79 107 106 45 26 93 39 143 39 50 0 98-13 143-39 45-27 81-62 107-106 4-6 6-13 6-19z"/>
<glyph glyph-name="eye-slash" unicode="&#57437;" d="M159 131l22 40c-17 12-30 27-39 45-9 19-14 38-14 58 0 23 6 45 17 65-43-23-79-56-108-101 31-49 72-85 122-107z m111 216c0 4-2 7-4 10-3 3-6 4-10 4-24 0-44-8-61-25-17-17-26-38-26-62 0-4 1-7 4-9 3-3 6-4 10-4 4 0 7 1 10 4 2 2 4 5 4 9 0 17 5 31 17 42 12 12 26 18 42 18 4 0 7 1 10 4 2 2 4 6 4 9z m103 55c0-1 0-2 0-3-20-35-50-89-90-161-40-72-70-126-90-162l-14-26c-2-3-5-4-8-4-2 0-15 6-38 20-3 2-5 4-5 8 0 2 4 10 13 25-28 12-53 28-76 49-23 21-43 44-59 70-4 6-6 12-6 20 0 7 2 14 6 19 29 45 65 81 108 106 44 26 91 39 142 39 17 0 34-1 51-5l16 28c2 3 4 5 8 5 1 0 3-1 5-2 2-1 5-3 9-4 3-2 6-4 9-6 3-1 6-3 9-5 3-2 5-3 6-3 3-2 4-5 4-8z m11-128c0-26-8-50-23-72-15-22-35-38-59-47l80 143c1-8 2-16 2-24z m128-36c0-7-2-14-6-20-7-12-18-26-31-41-28-33-62-59-99-77-38-18-78-27-120-27l21 38c41 3 78 16 112 39 35 23 63 52 86 88-21 34-48 62-80 84l18 32c18-12 35-27 52-44 17-17 30-34 41-53 4-6 6-13 6-19z"/>
<glyph glyph-name="facebook" unicode="&#57438;" d="M384 509l0-76-45 0c-17 0-28-3-33-10-6-7-9-17-9-31l0-54 84 0-11-85-73 0 0-216-87 0 0 216-73 0 0 85 73 0 0 62c0 36 10 63 29 83 20 19 47 29 80 29 28 0 49-1 65-3z"/>
<glyph glyph-name="facebook-square" unicode="&#57439;" d="M393 475c23 0 42-8 58-24 16-16 24-35 24-58l0-274c0-23-8-42-24-58-16-16-35-24-58-24l-54 0 0 170 57 0 9 66-66 0 0 42c0 11 3 19 7 24 5 5 13 8 26 8l35 0 0 60c-12 1-29 2-51 2-26 0-46-7-62-23-15-15-23-36-23-64l0-49-57 0 0-66 57 0 0-170-152 0c-23 0-42 8-58 24-16 16-24 35-24 58l0 274c0 23 8 42 24 58 16 16 35 24 58 24z"/>
<glyph glyph-name="facebook-official" unicode="&#57440;" d="M451 475c7 0 13-2 17-7 5-4 7-10 7-17l0-390c0-7-2-13-7-17-4-5-10-7-17-7l-112 0 0 170 57 0 9 66-66 0 0 42c0 11 3 19 7 24 5 5 13 8 26 8l35 0 0 60c-12 1-29 2-51 2-26 0-46-7-62-23-15-15-23-36-23-64l0-49-57 0 0-66 57 0 0-170-210 0c-7 0-13 2-17 7-5 4-7 10-7 17l0 390c0 7 2 13 7 17 4 5 10 7 17 7z"/>
<glyph glyph-name="google" unicode="&#57441;" d="M353 129c0 5 0 10-2 14-1 5-2 9-4 12-1 4-4 8-7 12-4 5-7 8-9 10-2 2-5 6-11 10-5 5-9 7-10 8-2 2-6 4-12 9-7 5-10 7-11 7-3 1-7 1-14 1-10 0-20-1-29-2-10-1-20-4-31-7-11-4-20-8-28-13-8-6-14-13-19-22-5-8-8-18-8-30 0-10 2-20 7-29 4-9 10-16 17-21 7-6 16-11 25-15 9-4 19-6 29-8 9-2 19-2 29-2 11 0 21 1 31 3 11 3 20 6 29 11 8 5 15 12 21 21 5 9 7 20 7 31z m-33 246c0 11-2 23-5 35-3 13-8 25-14 37-5 12-13 22-24 30-10 8-21 12-33 12-8 0-16-2-24-6-7-4-14-9-19-15-8-11-13-26-13-46 0-8 1-18 3-28 2-9 5-19 9-29 4-10 9-19 15-26 6-8 13-15 21-20 9-5 18-7 28-7 7 0 14 2 22 5 8 3 14 7 19 12 10 11 15 26 15 46z m-32 137l119 0-39-25-38 0c15-12 25-25 33-38 7-13 10-29 10-46 0-14-2-26-7-37-4-11-10-20-17-26-6-7-13-13-19-19-7-6-13-11-17-18-5-6-7-12-7-18 0-7 3-14 9-21 6-6 13-13 22-19 8-6 17-13 26-21 8-8 16-18 22-30 6-12 9-25 9-40 0-18-5-34-14-50-14-23-33-40-60-51-26-11-55-16-85-16-25 0-49 4-71 11-21 8-38 21-49 40-7 11-10 23-10 37 0 16 4 30 13 43 8 13 19 24 33 33 25 15 64 25 116 28-6 8-11 15-14 21-3 7-4 14-4 21 0 8 2 16 6 25-9-1-15-1-20-1-28 0-52 9-71 27-19 19-29 42-29 70 0 16 4 31 10 45 7 15 17 28 29 38 14 12 32 22 52 28 20 6 41 9 62 9z"/>
<glyph glyph-name="google-plus" unicode="&#57442;" d="M228 285c0-7 3-14 9-21 7-6 14-13 23-19 8-6 17-13 25-21 9-8 16-18 22-30 7-12 10-25 10-40 0-17-5-34-14-50-14-23-34-40-60-51-27-11-55-16-86-16-25 0-48 4-70 11-22 8-38 21-49 40-7 11-11 24-11 37 0 16 5 30 13 43 9 13 20 24 34 33 25 15 63 25 115 28-6 8-10 15-13 22-3 6-5 13-5 20 0 7 2 15 6 25-8-1-15-1-19-1-28 0-52 9-71 27-20 19-29 42-29 70 0 16 3 31 10 45 7 15 16 28 28 38 15 12 32 22 52 28 21 6 41 9 63 9l119 0-39-25-38 0c14-12 25-25 32-38 7-13 11-29 11-46 0-14-2-26-7-37-5-11-10-20-17-26-6-7-13-13-20-19-6-6-12-11-17-18-4-6-7-12-7-18z m-41 27c7 0 14 2 22 5 7 3 14 7 19 12 10 11 15 26 15 46 0 11-2 23-5 35-3 13-8 25-14 37-6 12-14 22-24 30-10 8-21 12-33 12-8 0-16-2-24-6-8-4-14-9-19-15-9-11-13-26-13-46 0-8 1-18 3-28 2-9 5-19 9-29 4-10 9-19 15-26 5-8 13-15 21-20 8-5 18-7 28-7z m0-249c11 0 22 1 32 3 10 3 20 6 28 11 9 5 16 12 21 21 5 9 8 20 8 31 0 5-1 10-2 14-1 5-3 9-4 12-2 4-4 8-8 12-4 5-6 8-8 10-2 2-6 6-11 10-6 5-9 7-11 8-1 2-5 4-12 9-6 5-9 7-10 7-3 1-8 1-14 1-10 0-20-1-30-2-10-1-20-4-30-7-11-4-20-8-28-13-8-6-15-13-20-22-5-8-7-18-7-30 0-13 3-25 10-35 6-10 15-18 26-24 10-5 22-10 34-12 12-3 24-4 36-4z m232 250l60 0 0-31-60 0 0-63-30 0 0 63-61 0 0 31 61 0 0 62 30 0z"/>
<glyph glyph-name="google-plus-square" unicode="&#57443;" d="M273 164c0-14-5-25-16-32-11-7-25-11-40-11-8 0-16 1-23 3-8 2-15 5-22 8-7 4-12 9-16 15-4 7-7 14-7 23 0 8 3 16 8 23 4 6 11 11 18 14 8 4 16 6 24 7 8 2 16 3 24 3 4 0 7-1 9-1 0 0 2-2 6-5 4-3 7-4 8-5 1-1 3-3 6-5 4-3 6-5 7-7 2-1 3-3 6-6 2-3 4-5 5-7 0-3 1-5 2-8 1-3 1-6 1-9z m-21 156c0-12-3-21-9-29-6-7-15-11-26-11-11 0-19 4-27 12-8 8-13 17-16 28-4 10-5 20-5 30 0 12 3 22 9 30 6 8 15 12 26 12 10 0 19-4 27-13 7-8 13-18 16-29 4-10 5-21 5-30z m31 73l25 18-76 0c-16 0-32-3-46-9-14-6-27-15-36-28-10-12-15-27-15-43 0-18 6-33 18-45 13-11 28-17 46-17 4 0 8 0 12 1-3-6-4-11-4-16 0-8 4-17 12-27-34-2-58-8-74-18-9-5-16-12-21-20-6-9-9-18-9-28 0-8 2-15 6-22 3-6 8-12 14-16 5-4 12-8 19-10 8-3 15-5 22-6 8-2 15-2 22-2 12 0 23 1 35 4 11 3 22 8 32 13 10 6 18 14 25 24 6 10 9 21 9 33 0 10-2 18-6 26-3 8-8 14-14 19-5 5-11 9-16 14-6 4-10 8-14 12-4 4-6 9-6 13 0 4 2 8 5 12 3 4 6 8 10 11 4 4 9 8 13 12 4 5 8 10 11 17 3 7 4 15 4 24 0 11-2 21-6 28-5 8-12 16-21 26z m83-128l36 0 0 18-36 0 0 37-19 0 0-37-36 0 0-18 36 0 0-46 19 0z m109 128l0-274c0-23-8-42-24-58-16-16-35-24-58-24l-274 0c-23 0-42 8-58 24-16 16-24 35-24 58l0 274c0 23 8 42 24 58 16 16 35 24 58 24l274 0c23 0 42-8 58-24 16-16 24-35 24-58z"/>
<glyph glyph-name="heart-o" unicode="&#57444;" d="M475 342c0 15-2 29-6 41-4 11-9 21-15 28-7 7-15 12-24 17-9 4-18 7-27 9-8 1-18 2-28 2-9 0-20-3-32-7-11-5-22-11-31-19-10-7-18-14-25-20-7-7-12-13-17-18-3-4-8-6-14-6-6 0-11 2-14 6-5 5-10 11-17 18-7 6-15 13-25 20-9 8-20 14-31 19-12 4-23 7-32 7-10 0-20-1-28-2-9-2-18-5-27-9-9-5-17-10-24-17-6-7-11-17-15-28-4-12-6-26-6-41 0-32 17-66 53-102l166-160 166 160c36 36 53 70 53 102z m37 0c0-42-22-85-65-129l-178-171c-4-4-8-5-13-5-5 0-9 1-13 5l-178 172c-2 1-4 4-8 7-3 4-8 10-16 19-7 9-13 18-19 28-6 9-11 21-15 34-5 14-7 27-7 40 0 42 12 74 36 98 24 24 58 35 101 35 11 0 23-2 36-6 12-4 23-9 34-16 11-7 20-14 27-20 8-6 15-12 22-19 7 7 14 13 22 19 7 6 16 13 27 20 11 7 22 12 34 16 13 4 25 6 36 6 43 0 77-11 101-35 24-24 36-56 36-98z"/>
<glyph glyph-name="heart" unicode="&#57445;" d="M256 37c-5 0-9 1-13 5l-178 172c-2 1-4 4-8 7-3 4-8 10-16 19-7 9-13 18-19 28-6 9-11 21-15 34-5 14-7 27-7 40 0 42 12 74 36 98 24 24 58 35 101 35 11 0 23-2 36-6 12-4 23-9 34-16 11-7 20-14 27-20 8-6 15-12 22-19 7 7 14 13 22 19 7 6 16 13 27 20 11 7 22 12 34 16 13 4 25 6 36 6 43 0 77-11 101-35 24-24 36-56 36-98 0-42-22-85-65-129l-178-171c-4-4-8-5-13-5z"/>
<glyph glyph-name="instagram" unicode="&#57446;" d="M426 105l0 185-39 0c4-12 6-25 6-38 0-24-6-46-18-66-13-20-29-36-50-48-21-12-44-18-69-18-37 0-69 13-96 39-27 26-40 57-40 93 0 13 2 26 6 38l-41 0 0-185c0-5 2-10 5-13 4-3 8-5 13-5l305 0c5 0 9 2 13 5 3 3 5 8 5 13z m-81 152c0 23-9 44-26 60-18 17-38 25-63 25-24 0-45-8-62-25-17-16-26-37-26-60 0-24 9-44 26-61 17-16 38-25 62-25 25 0 45 9 63 25 17 17 26 37 26 61z m81 103l0 47c0 5-2 10-6 14-4 4-8 6-14 6l-50 0c-5 0-10-2-14-6-4-4-5-9-5-14l0-47c0-6 1-10 5-14 4-4 9-6 14-6l50 0c6 0 10 2 14 6 4 4 6 8 6 14z m49 59l0-326c0-16-5-29-16-40-11-11-24-16-40-16l-326 0c-16 0-29 5-40 16-11 11-16 24-16 40l0 326c0 16 5 29 16 40 11 11 24 16 40 16l326 0c16 0 29-5 40-16 11-11 16-24 16-40z"/>
<glyph glyph-name="long-arrow-right" unicode="&#57447;" d="M494 257c0-3-1-5-3-7l-110-101c-3-3-6-3-10-2-3 2-5 5-5 8l0 64-357 0c-3 0-5 1-6 3-2 2-3 4-3 7l0 54c0 3 1 5 3 7 1 2 3 3 6 3l357 0 0 64c0 4 2 6 5 8 4 1 7 1 10-2l110-100c2-1 3-4 3-6z"/>
<glyph glyph-name="long-arrow-left" unicode="&#57448;" d="M512 283l0-54c0-3-1-5-3-7-1-2-3-3-6-3l-357 0 0-64c0-4-2-6-5-8-4-1-7-1-10 2l-110 100c-2 1-3 4-3 6 0 3 1 5 3 7l110 101c3 3 6 3 10 2 3-2 5-5 5-8l0-64 357 0c3 0 5-1 6-3 2-2 3-4 3-7z"/>
<glyph glyph-name="long-arrow-up" unicode="&#57449;" d="M365 371c-2-3-5-5-8-5l-64 0 0-357c0-3-1-5-3-6-2-2-4-3-7-3l-54 0c-3 0-5 1-7 3-2 1-3 3-3 6l0 357-64 0c-4 0-6 2-8 5-1 4-1 7 2 10l100 110c1 2 4 3 6 3 3 0 5-1 7-3l101-110c3-3 3-6 2-10z"/>
<glyph glyph-name="long-arrow-down" unicode="&#57450;" d="M365 141c1-4 1-7-2-10l-100-110c-1-2-4-3-6-3-3 0-5 1-7 3l-101 110c-3 3-3 6-2 10 2 3 5 5 8 5l64 0 0 357c0 3 1 5 3 6 2 2 4 3 7 3l54 0c3 0 5-1 7-3 2-1 3-3 3-6l0-357 64 0c4 0 6-2 8-5z"/>
<glyph glyph-name="map" unicode="&#57451;" d="M146 512c3 0 5-1 7-3 2-2 2-4 2-6l0-421c0-4-1-6-4-8l-138-73c-1-1-2-1-4-1-2 0-4 1-6 3-2 2-3 4-3 6l0 421c0 4 2 6 5 8l137 73c1 1 3 1 4 1z m357 0c2 0 4-1 6-3 2-2 3-4 3-6l0-421c0-4-2-6-5-8l-137-73c-1-1-3-1-4-1-3 0-5 1-7 3-2 2-2 4-2 6l0 421c0 4 1 6 4 8l138 73c1 1 2 1 4 1z m-320 0c1 0 3 0 4-1l146-73c4-2 5-5 5-8l0-421c0-2-1-4-2-6-2-2-4-3-7-3-1 0-3 0-4 1l-146 73c-4 2-5 5-5 8l0 421c0 2 1 4 2 6 2 2 4 3 7 3z"/>
<glyph glyph-name="map-marker" unicode="&#57452;" d="M329 329c0 20-7 38-21 52-15 14-32 21-52 21-20 0-37-7-52-21-14-14-21-32-21-52 0-20 7-37 21-52 15-14 32-21 52-21 20 0 37 7 52 21 14 15 21 32 21 52z m73 0c0-21-3-38-9-51l-104-221c-3-6-8-11-14-15-6-4-12-5-19-5-7 0-13 1-19 5-6 4-11 9-14 15l-104 221c-6 13-9 30-9 51 0 41 14 75 43 104 28 28 63 42 103 42 40 0 75-14 103-42 29-29 43-63 43-104z"/>
<glyph glyph-name="meh-o" unicode="&#57453;" d="M366 201c0-5-2-9-6-13-3-3-8-5-13-5l-182 0c-5 0-10 2-13 5-4 4-6 8-6 13 0 5 2 9 6 13 3 4 8 5 13 5l182 0c5 0 10-1 13-5 4-4 6-8 6-13z m-147 128c0-10-3-19-10-26-7-7-16-10-26-10-10 0-19 3-26 10-7 7-11 16-11 26 0 10 4 19 11 26 7 7 16 11 26 11 10 0 19-4 26-11 7-7 10-16 10-26z m147 0c0-10-4-19-11-26-7-7-16-10-26-10-10 0-19 3-26 10-7 7-10 16-10 26 0 10 3 19 10 26 7 7 16 11 26 11 10 0 19-4 26-11 7-7 11-16 11-26z m73-73c0 25-5 48-15 71-9 23-22 42-39 58-16 17-35 30-58 39-23 10-46 15-71 15-25 0-48-5-71-15-23-9-42-22-58-39-17-16-30-35-39-58-10-23-15-46-15-71 0-25 5-48 15-71 9-23 22-42 39-58 16-17 35-30 58-39 23-10 46-15 71-15 25 0 48 5 71 15 23 9 42 22 58 39 17 16 30 35 39 58 10 23 15 46 15 71z m36 0c0-40-9-77-29-110-20-34-46-60-80-80-33-20-70-29-110-29-40 0-77 9-110 29-34 20-60 46-80 80-20 33-29 70-29 110 0 40 9 77 29 110 20 34 46 60 80 80 33 20 70 29 110 29 40 0 77-9 110-29 34-20 60-46 80-80 20-33 29-70 29-110z"/>
<glyph glyph-name="phone" unicode="&#57454;" d="M457 158c0-5-1-12-3-20-2-9-4-15-6-20-4-10-15-20-35-30-17-10-35-15-53-15-5 0-10 0-15 1-5 1-10 2-16 4-6 1-11 3-14 4-3 1-8 3-16 6-7 3-12 4-14 5-18 7-35 14-50 24-24 15-49 35-75 61-26 26-47 51-62 76-9 14-17 31-23 50-1 1-3 6-6 14-2 7-4 13-5 16-1 3-3 7-5 13-1 6-2 12-3 17-1 4-1 9-1 15 0 17 5 35 14 53 11 19 21 31 31 35 4 2 11 4 19 6 9 1 15 2 20 2 3 0 5 0 6 0 4-2 9-9 16-22 2-4 5-9 8-16 4-6 7-12 10-18 3-5 6-10 9-15 1-1 2-3 5-7 3-4 5-8 6-10 1-3 2-6 2-8 0-4-3-9-8-15-5-5-11-11-18-15-6-5-12-10-17-16-6-5-9-9-9-13 0-1 1-4 2-6 1-3 2-5 2-6 1-1 2-4 4-7 2-3 3-5 4-5 14-26 31-49 49-67 19-19 41-36 67-50 1 0 3-1 6-3 3-2 5-4 7-4 1-1 3-2 6-3 2-1 4-1 6-1 3 0 8 2 13 8 5 5 11 11 15 18 5 6 10 12 16 17 6 6 10 8 14 8 3 0 6 0 8-2 3-1 7-3 11-6 4-2 6-4 7-5 4-3 10-6 15-9 5-3 11-6 18-10 7-3 12-6 16-8 13-7 20-12 21-15 1-2 1-4 1-6z"/>
<glyph glyph-name="balance-scale" unicode="&#57455;" d="M421 384l-110-201 219 0z m-366 0l-110-201 220 0z m234 55c-2-8-7-15-13-21-6-6-12-10-20-13l0-368 174 0c2 0 5-1 6-3 2-2 3-4 3-7l0-18c0-3-1-5-3-6-1-2-4-3-6-3l-384 0c-3 0-5 1-7 3-2 1-2 3-2 6l0 18c0 3 0 5 2 7 2 2 4 3 7 3l173 0 0 368c-7 3-14 7-20 13-6 6-10 13-13 21l-140 0c-3 0-5 1-7 2-2 2-2 4-2 7l0 18c0 3 0 5 2 7 2 2 4 2 7 2l140 0c4 11 11 20 20 27 9 7 20 10 32 10 12 0 22-3 31-10 10-7 16-16 20-27l141 0c2 0 5 0 6-2 2-2 3-4 3-7l0-18c0-3-1-5-3-7-1-1-4-2-6-2z m-51-5c6 0 11 3 16 7 4 4 7 10 7 16 0 6-3 12-7 16-5 5-10 7-16 7-7 0-12-2-16-7-5-4-7-10-7-16 0-6 2-12 7-16 4-4 9-7 16-7z m311-251c0-14-5-27-14-38-9-11-20-19-33-26-14-6-28-11-42-14-14-3-27-4-39-4-13 0-26 1-40 4-14 3-28 8-42 14-13 7-24 15-33 26-9 11-13 24-13 38 0 2 3 10 10 23 6 13 15 30 26 50 11 20 21 38 30 56 10 17 20 35 30 52 9 18 15 28 16 29 3 6 8 9 16 9 7 0 12-3 16-9 0-1 6-11 16-29 9-17 19-35 29-52 9-18 19-36 30-56 11-20 20-37 27-50 6-13 10-21 10-23z m-366 0c0-14-5-27-13-38-9-11-20-19-34-26-14-6-27-11-41-14-14-3-28-4-40-4-13 0-26 1-40 4-14 3-28 8-41 14-14 7-25 15-34 26-9 11-13 24-13 38 0 2 3 10 10 23 7 13 15 30 26 50 11 20 21 38 31 56 9 17 19 35 29 52 10 18 15 28 16 29 3 6 9 9 16 9 7 0 12-3 16-9 1-1 6-11 16-29 10-17 19-35 29-52 10-18 20-36 31-56 10-20 19-37 26-50 7-13 10-21 10-23z"/>
<glyph glyph-name="burst-sale" unicode="&#57456;" d="M226 227l18 11-24 20z m227 29c0 5-2 9-5 11l0 0-48 28 28 47 0 1c1 3 1 8-1 12-2 4-6 6-10 7l0 0-56 0 0 55 0 0c0 4-3 8-6 10-4 2-9 2-13 1l0 0-48-28-27 46 0 0c-3 4-7 6-11 6-5 0-9-2-11-6l-1 0-27-47-47 27 0 0c-4 2-8 2-12-1-4-2-7-6-7-10l0 0 0-55-55 0 0 0c-4 0-8-2-10-6-2-4-2-9-1-13l0 0 27-46-48-28 0 0c-3-3-5-7-5-11 0-5 2-9 5-11l0 0 48-28-28-48 0 0c-1-3-1-8 1-12 2-4 6-6 11-7l0 0 55 0 0-55 0 0c0-4 3-8 6-10 4-2 9-2 13-1l0 0 48 28 27-46 0 0c3-4 7-6 11-6 5 0 9 2 11 6l1 0 27 47 47-27 0 0c4-2 8-2 12 1 4 2 7 6 7 10l0 0 0 55 55 0 0 0c4 0 8 2 10 6 2 4 2 9 1 13l0 0-27 46 48 28 0 0c3 3 5 7 5 11z m-261-78c-11-6-22-7-30-5l1 14c7-2 15-2 23 3 7 4 9 9 7 12-6 10-36-16-49 6-6 10-2 23 12 31 10 5 19 7 28 5l-2-14c-7 2-15 0-21-3-5-3-7-7-4-11 5-9 35 17 48-5 6-11 3-24-13-33z m72 43l-10 8-25-15 2-12-14-8-12 72 16 9 57-46z m19 11l-34 59 12 7 28-48 25 15 6-11z m46 27l-34 59 42 24 6-11-29-17 7-13 29 17 6-11-29-17 8-13 29 17 7-11z"/>
<glyph glyph-name="burst-new" unicode="&#57457;" d="M453 256c0 5-2 9-5 11l0 0-48 28 28 47 0 1c1 3 1 8-1 12-2 4-6 6-10 7l0 0-56 0 0 55 0 0c0 4-3 8-6 10-4 2-9 2-13 1l0 0-48-28-27 46 0 0c-3 4-7 6-11 6-5 0-9-2-11-6l-1 0-27-47-47 27 0 0c-4 2-8 2-12-1-4-2-7-6-7-10l0 0 0-55-55 0 0 0c-4 0-8-2-10-6-2-4-2-9-1-13l0 0 27-46-48-28 0 0c-3-3-5-7-5-11 0-5 2-9 5-11l0 0 48-28-28-48 0 0c-1-3-1-8 1-12 2-4 6-6 11-7l0 0 55 0 0-55 0 0c0-4 3-8 6-10 4-2 9-2 13-1l0 0 48 28 27-46 0 0c3-4 7-6 11-6 5 0 9 2 11 6l1 0 27 47 47-27 0 0c4-2 8-2 12 1 4 2 7 6 7 10l0 0 0 55 55 0 0 0c4 0 8 2 10 6 2 4 2 9 1 13l0 0-27 46 48 28 0 0c3 3 5 7 5 11z m-229-58l-51 22 23-38-13-8-34 59 13 8 49-21-22 37 13 7 34-59z m24 14l-34 59 41 24 7-11-29-17 7-13 28 17 7-11-29-17 8-13 29 17 6-11z m96 55l-33 35 13-46-14-8-51 49 14 8 36-36-14 49 10 5 36-36-15 49 15 8 17-69z"/>
<glyph glyph-name="burst" unicode="&#57458;" d="M453 256c0 5-2 9-5 11l0 0-48 28 28 47 0 1c1 3 1 8-1 12-2 4-6 6-10 7l0 0-56 0 0 55 0 0c0 4-3 8-6 10-4 2-9 2-13 1l0 0-48-28-27 46 0 0c-3 4-7 6-11 6-5 0-9-2-11-6l-1 0-27-47-47 27 0 0c-4 2-8 2-12-1-4-2-7-6-7-10l0 0 0-55-55 0 0 0c-4 0-8-2-10-6-2-4-2-9-1-13l0 0 27-46-48-28 0 0c-3-3-5-7-5-11 0-5 2-9 5-11l0 0 48-28-28-48 0 0c-1-3-1-8 1-12 2-4 6-6 11-7l0 0 55 0 0-55 0 0c0-4 3-8 6-10 4-2 9-2 13-1l0 0 48 28 27-46 0 0c3-4 7-6 11-6 5 0 9 2 11 6l1 0 27 47 47-27 0 0c4-2 8-2 12 1 4 2 7 6 7 10l0 0 0 55 55 0 0 0c4 0 8 2 10 6 2 4 2 9 1 13l0 0-27 46 48 28 0 0c3 3 5 7 5 11z"/>
<glyph glyph-name="align-justify-1" unicode="&#57459;" d="M416 433l-320 0c-10 0-17-8-17-17l0-16c0-10 7-18 17-18l320 0c10 0 17 8 17 18l0 16c0 9-7 17-17 17z m0-101l-320 0c-10 0-17-8-17-17l0-16c0-10 7-18 17-18l320 0c10 0 17 8 17 18l0 16c0 9-7 17-17 17z m0-101l-320 0c-10 0-17-8-17-18l0-16c0-9 7-17 17-17l320 0c10 0 17 8 17 17l0 16c0 10-7 18-17 18z m0-101l-320 0c-10 0-17-8-17-18l0-16c0-9 7-17 17-17l320 0c10 0 17 8 17 17l0 16c0 10-7 18-17 18z"/>
<glyph glyph-name="align-left-1" unicode="&#57460;" d="M416 434l-320 0c-10 0-17-7-17-17l0-16c0-10 7-17 17-17l320 0c10 0 17 7 17 17l0 16c0 10-7 17-17 17z m-320-152l234 0c9 0 17 7 17 17l0 16c0 10-8 18-17 18l-234 0c-10 0-17-8-17-18l0-16c0-10 7-17 17-17z m285-154l-285 0c-10 0-17-7-17-17l0-16c0-10 7-17 17-17l285 0c10 0 17 7 17 17l0 0 0 16 0 0c0 10-7 17-17 17z m-285 52l199 0c9 0 17 7 17 17 0 0 0 0 0 0l0 16c0 10-8 17-17 17l-199 0c-10 0-17-7-17-17l0-16c0-10 7-17 17-17z"/>
<glyph glyph-name="arrow-right" unicode="&#57461;" d="M260 113l187 133c3 2 5 6 5 10 0 0 0 0 0 0 0 5-2 9-5 11l-187 132c-4 3-9 4-13 1-4-2-7-6-7-11l0-62-167 0c-8 0-13-6-13-13l0-116c0-7 5-13 13-13l167 0 0-62c0-5 3-9 7-11 4-3 10-2 13 1z"/>
<glyph glyph-name="arrow-left" unicode="&#57462;" d="M252 399l-187-133c-3-2-5-6-5-10 0 0 0 0 0 0 0-5 2-9 5-11l187-132c4-3 9-4 13-1 4 2 7 6 7 11l0 62 167 0c8 0 13 6 13 13l0 116c0 7-5 13-13 13l-167 0 0 62c0 5-3 9-7 11-4 3-10 2-13-1z"/>
<glyph glyph-name="alert" unicode="&#57463;" d="M467 95l0 0-1 2c0 0-1 1-1 2l-193 334c-3 5-9 9-16 9-8 0-14-4-17-11l0 0-191-331 0 0c-3-4-4-8-4-12 0-10 8-18 18-18l388 0c10 0 18 8 18 18 0 3 0 5-1 7z m-211 9c-15 0-26 12-26 27 0 14 11 26 26 26 15 0 26-12 26-26 0-15-11-27-26-27z m26 233l0-145 0 0c0 0 0 0 0 0 0-6-4-11-10-11 0 0 0 0 0 0l0 0-32 0c-6 0-10 5-10 11 0 0 0 0 0 0l0 0 0 144c0 0 0 1 0 1 0 5 4 10 9 10l0 0 33 0 0 0c6 0 10-4 10-10l0 0 0 0c0 0 0 0 0 0z"/>
</font>
</defs>
</svg>
