<svg xmlns="http://www.w3.org/2000/svg" viewBox="0 0 832.6 193.68">
    <defs><style>.cls-1{fill:#00aeef;}.cls-2{fill:#091a33;}.cls-3{fill:#e5ac0c;}.cls-4{fill:#f2bd0b;}.cls-5{fill:#028fba;}.cls-6{opacity:0.7;}.cls-7{fill:#231f20;}</style></defs>
    <title>Ресурс 1</title>
    <g id="Слой_2" data-name="Слой 2">
        <g id="Layer_1" data-name="Layer 1">
            <path class="cls-1" d="M227.59,170.26A41.79,41.79,0,0,1,208.75,166a46.81,46.81,0,0,1-14.67-11.26,51.17,51.17,0,0,1-9.46-16.06,53,53,0,0,1-3.34-18.49,51.32,51.32,0,0,1,3.55-18.91,52.15,52.15,0,0,1,9.8-16,47.41,47.41,0,0,1,14.74-11.05,41.61,41.61,0,0,1,18.35-4.1,40.72,40.72,0,0,1,18.84,4.38A47.32,47.32,0,0,1,261.17,86a53,53,0,0,1,9.39,16.06,52.07,52.07,0,0,1,3.34,18.29,51.3,51.3,0,0,1-3.55,18.91,52,52,0,0,1-9.73,15.92,47.07,47.07,0,0,1-14.67,11A41.58,41.58,0,0,1,227.59,170.26ZM191,120.2a45.94,45.94,0,0,0,2.64,15.5,42.09,42.09,0,0,0,7.51,13.21,36.89,36.89,0,0,0,11.54,9.18,32.23,32.23,0,0,0,14.88,3.41,31.8,31.8,0,0,0,15.16-3.62,37,37,0,0,0,11.54-9.46,43.74,43.74,0,0,0,7.3-13.21,45.41,45.41,0,0,0-.14-30.52,42.45,42.45,0,0,0-7.58-13.14,37.4,37.4,0,0,0-11.54-9.11A32,32,0,0,0,227.59,79a32.32,32.32,0,0,0-15.16,3.55A36.11,36.11,0,0,0,200.9,92a43.67,43.67,0,0,0-7.3,13.21A45.24,45.24,0,0,0,191,120.2Z"/>
            <path class="cls-1" d="M292.25,169.57V71H302v57.29l54.37-57.43h10.71l-40.32,43.38,42.41,55.34H358.44l-37.82-49.64L302,139.25v30.31Z"/>
            <path class="cls-1" d="M412.25,70.84h8.2l41,98.73H451.19L438.39,138.7H394l-12.65,30.87H371Zm23.92,60.21L416.28,82.24l-20.16,48.81Z"/>
            <path class="cls-1" d="M464.67,70.84,496.93,124l32.54-53.12H540l-38.24,62v36.71h-9.73v-37L454,70.84Z"/>
            <path class="cls-2" d="M541.43,119.51a52.77,52.77,0,0,1,3.13-17.73A49.18,49.18,0,0,1,553.67,86a46.72,46.72,0,0,1,14.74-11.33,43.86,43.86,0,0,1,19.88-4.38q13.21,0,22.6,6a36.38,36.38,0,0,1,13.84,15.57l-7.65,4.73a29.26,29.26,0,0,0-5.77-8.2,32.15,32.15,0,0,0-7.3-5.42,30.87,30.87,0,0,0-8.06-3,38.67,38.67,0,0,0-8.2-.9A33,33,0,0,0,572,82.66a36.19,36.19,0,0,0-11.47,9.46,41.19,41.19,0,0,0-7,13.14,47.74,47.74,0,0,0-2.36,14.81A43.89,43.89,0,0,0,554,135.78a44.5,44.5,0,0,0,7.79,13.28,37.41,37.41,0,0,0,11.68,9.18,32.06,32.06,0,0,0,14.67,3.41,36.86,36.86,0,0,0,8.55-1,33,33,0,0,0,8.48-3.34,35.72,35.72,0,0,0,7.58-5.7,29.57,29.57,0,0,0,5.84-8.27l8.06,4.17a30.25,30.25,0,0,1-6.67,9.8,43.94,43.94,0,0,1-9.6,7.16,47.8,47.8,0,0,1-11.19,4.45,46.28,46.28,0,0,1-11.61,1.53A39.47,39.47,0,0,1,569,166a48.81,48.81,0,0,1-14.6-11.61,53.84,53.84,0,0,1-9.53-16.27A52.58,52.58,0,0,1,541.43,119.51Z"/>
            <path class="cls-2" d="M730.82,169.57V88.5l-36,62.71h-5.7l-36-62.71v81.07h-9.73V70.84h10l38.52,67.58,38.8-67.58h9.87v98.73Z"/>
            <path class="cls-2" d="M823,89.34a30.08,30.08,0,0,0-11.12-7.65A40.63,40.63,0,0,0,796,78.77Q783,78.77,777,83.7t-6,13.42a14.8,14.8,0,0,0,1.6,7.3,13.94,13.94,0,0,0,4.94,4.94,34.59,34.59,0,0,0,8.55,3.62q5.21,1.53,12.3,3.06a134.08,134.08,0,0,1,14.25,3.75A41,41,0,0,1,823.42,125a21.66,21.66,0,0,1,6.81,7.58,23.55,23.55,0,0,1,2.36,11.12A25,25,0,0,1,830,155.52a23.57,23.57,0,0,1-7.37,8.34,32.84,32.84,0,0,1-11.26,4.94A60.31,60.31,0,0,1,797,170.4q-22.94,0-39.63-14.32l4.87-7.93a38.44,38.44,0,0,0,6.33,5.28,45.74,45.74,0,0,0,8.21,4.38,52,52,0,0,0,9.66,2.92,54.47,54.47,0,0,0,10.85,1q11.82,0,18.42-4.24t6.61-12.86a14.77,14.77,0,0,0-1.88-7.72,16.26,16.26,0,0,0-5.63-5.42,39.87,39.87,0,0,0-9.32-4q-5.56-1.67-12.93-3.34-7.79-1.8-13.63-3.75a36.29,36.29,0,0,1-9.87-4.87,18.93,18.93,0,0,1-6-7,22.72,22.72,0,0,1-2-10.08,27.74,27.74,0,0,1,2.57-12.17,23.9,23.9,0,0,1,7.3-8.9A34.56,34.56,0,0,1,782,72a50.28,50.28,0,0,1,14.18-1.88,48.42,48.42,0,0,1,17.59,3,47.27,47.27,0,0,1,14,8.41Z"/>
            <polygon class="cls-3" points="142.51 40.96 141.46 5.29 71.25 75.49 1.05 5.29 0 40.96 52.89 93.86 47.5 99.25 59.61 111.36 82.89 111.36 95.01 99.25 89.61 93.86 142.51 40.96"/>
            <polygon class="cls-4" points="95.01 93.95 76.65 112.31 0 35.67 1.05 0 95.01 93.95"/>
            <polygon class="cls-4" points="47.5 93.95 65.86 112.31 142.51 35.67 141.46 0 47.5 93.95"/>
            <polygon class="cls-4" points="95.01 93.95 76.65 112.31 0 35.67 1.05 0 95.01 93.95"/>
            <polygon class="cls-4" points="47.5 93.95 65.86 112.31 142.51 35.67 141.46 0 47.5 93.95"/>
            <path class="cls-1" d="M.76,123.57A70.11,70.11,0,1,0,70.87,53.47,70.11,70.11,0,0,0,.76,123.57Zm115.35,0A45.24,45.24,0,1,1,70.87,78.33,45.24,45.24,0,0,1,116.12,123.57Z"/>
            <path class="cls-5" d="M70.87,75.15A45.24,45.24,0,0,0,25.63,120.4c0,.53,0,1.06,0,1.59a45.23,45.23,0,0,1,90.41,0c0-.53,0-1.05,0-1.59A45.24,45.24,0,0,0,70.87,75.15Z"/>
            <path class="cls-5" d="M70.87,190.51A70.09,70.09,0,0,1,.8,122c0,.53,0,1.05,0,1.59a70.11,70.11,0,0,0,140.22,0c0-.53,0-1.06,0-1.59A70.1,70.1,0,0,1,70.87,190.51Z"/>
            <g class="cls-6">
                <path class="cls-7" d="M70.87,78.33a45.24,45.24,0,0,0-45.24,45.24c0,.53,0,1.06,0,1.59a45.23,45.23,0,0,1,90.41,0c0-.53,0-1.06,0-1.59A45.24,45.24,0,0,0,70.87,78.33Z"/>
            </g>
            <g class="cls-6">
                <path class="cls-7" d="M1.67,112.31c-.29,1.78-.5,3.58-.65,5.39H26a45.4,45.4,0,0,1,1-5.39Z"/>
                <path class="cls-7" d="M140.07,112.31H114.7a44.8,44.8,0,0,1,1,5.39h25Q140.49,115,140.07,112.31Z"/>
            </g>
            <rect class="cls-3" x="1.22" y="111.36" width="139.3" height="3.07"/>
            <path class="cls-4" d="M140.44,111.55a69.61,69.61,0,0,0-9.64-26H10.95a69.58,69.58,0,0,0-9.64,26Z"/>
        </g>
    </g>
</svg>